<?xml version="1.0" encoding="iso-8859-1"?>
<!-- Generator: Adobe Illustrator 16.0.4, SVG Export Plug-In . SVG Version: 6.00 Build 0)  -->
<!DOCTYPE svg PUBLIC "-//W3C//DTD SVG 1.1//EN" "http://www.w3.org/Graphics/SVG/1.1/DTD/svg11.dtd">
<svg version="1.1" id="Layer_1" xmlns="http://www.w3.org/2000/svg" xmlns:xlink="http://www.w3.org/1999/xlink" x="0px" y="0px"
	 width="210px" height="112px" viewBox="0 0 210 112" style="enable-background:new 0 0 210 112;" xml:space="preserve">
<g>
	<g>
		<path style="fill:#8A8A8D;" d="M175.852,111.434H26.284c-5.667,0-10.314-4.646-10.314-10.314V10.863
			c0-5.668,4.647-10.316,10.314-10.316h149.567c5.668,0,10.315,4.648,10.315,10.316v18.052h-5.158V10.863
			c0-2.834-2.323-5.157-5.157-5.157H26.284c-2.834,0-5.157,2.323-5.157,5.157v90.256c0,2.834,2.323,5.156,5.157,5.156h149.567
			c2.834,0,5.157-2.322,5.157-5.156V77.91h5.158v23.209C186.167,106.788,181.52,111.434,175.852,111.434z"/>
	</g>
	<g>
		<rect x="36.6" y="65.016" style="fill:#8A8A8D;" width="82.52" height="5.158"/>
	</g>
	<g>
		<rect x="36.6" y="83.066" style="fill:#8A8A8D;" width="46.417" height="5.158"/>
	</g>
	<g>
		<rect x="18.549" y="23.756" style="fill:#8A8A8D;" width="162.46" height="5.159"/>
	</g>
</g>
<line style="fill:none;stroke:#8A8A8D;stroke-width:5;stroke-miterlimit:10;" x1="170.526" y1="39.458" x2="197.394" y2="66.325"/>
<line style="fill:none;stroke:#8A8A8D;stroke-width:5;stroke-miterlimit:10;" x1="197.827" y1="39.458" x2="170.96" y2="66.325"/>
<line style="fill:none;stroke:#8A8A8D;stroke-width:5;stroke-miterlimit:10;" x1="183.5" y1="34" x2="183.5" y2="72"/>
<line style="fill:none;stroke:#8A8A8D;stroke-width:5;stroke-miterlimit:10;" x1="203" y1="52.5" x2="165" y2="52.5"/>
</svg>
