<?xml version="1.0" encoding="iso-8859-1"?>
<!-- Generator: Adobe Illustrator 16.0.4, SVG Export Plug-In . SVG Version: 6.00 Build 0)  -->
<!DOCTYPE svg PUBLIC "-//W3C//DTD SVG 1.1//EN" "http://www.w3.org/Graphics/SVG/1.1/DTD/svg11.dtd">
<svg version="1.1" id="Layer_1" xmlns="http://www.w3.org/2000/svg" xmlns:xlink="http://www.w3.org/1999/xlink" x="0px" y="0px"
	 width="210px" height="112px" viewBox="0 0 210 112" style="enable-background:new 0 0 210 112;" xml:space="preserve">
<polygon style="fill:#8A8A8D;" points="200.993,34.799 176.644,59.148 163.597,46.102 160.062,49.637 176.626,66.201 
	177.644,65.184 177.661,65.201 204.528,38.334 "/>
<g>
	<g>
		<path style="fill:#8A8A8D;" d="M168.852,112.434H19.284c-5.667,0-10.314-4.646-10.314-10.314V11.863
			c0-5.668,4.647-10.316,10.314-10.316h149.567c5.668,0,10.315,4.648,10.315,10.316v18.052h-5.158V11.863
			c0-2.834-2.323-5.157-5.157-5.157H19.284c-2.834,0-5.157,2.323-5.157,5.157v90.256c0,2.834,2.323,5.156,5.157,5.156h149.567
			c2.834,0,5.157-2.322,5.157-5.156V78.91h5.158v23.209C179.167,107.788,174.52,112.434,168.852,112.434z"/>
	</g>
	<g>
		<rect x="29.6" y="66.016" style="fill:#8A8A8D;" width="82.52" height="5.158"/>
	</g>
	<g>
		<rect x="29.6" y="84.066" style="fill:#8A8A8D;" width="46.417" height="5.158"/>
	</g>
	<g>
		<rect x="11.549" y="24.756" style="fill:#8A8A8D;" width="162.46" height="5.159"/>
	</g>
</g>
</svg>
