<?xml version="1.0" encoding="iso-8859-1"?>
<!-- Generator: Adobe Illustrator 16.0.4, SVG Export Plug-In . SVG Version: 6.00 Build 0)  -->
<!DOCTYPE svg PUBLIC "-//W3C//DTD SVG 1.1//EN" "http://www.w3.org/Graphics/SVG/1.1/DTD/svg11.dtd">
<svg version="1.1" id="Layer_1" xmlns="http://www.w3.org/2000/svg" xmlns:xlink="http://www.w3.org/1999/xlink" x="0px" y="0px"
	 width="210px" height="112px" viewBox="0 0 210 112" style="enable-background:new 0 0 210 112;" xml:space="preserve">
<g>
	<g>
		<rect x="130.097" y="67.843" style="fill:#8A8A8D;" width="4.885" height="14.487"/>
	</g>
	<g>
		<path style="fill:#8A8A8D;" d="M123.788,49.663c-4.593,0-8.33-3.735-8.33-8.328v-3.426c0-4.596,3.737-8.332,8.33-8.332
			c4.593,0,8.329,3.736,8.329,8.332v3.426C132.117,45.928,128.381,49.663,123.788,49.663z M123.788,34.465
			c-1.898,0-3.443,1.544-3.443,3.444v3.426c0,1.896,1.545,3.439,3.443,3.439c1.899,0,3.443-1.543,3.443-3.439v-3.426
			C127.231,36.009,125.687,34.465,123.788,34.465z"/>
	</g>
	<g>
		<path style="fill:#8A8A8D;" d="M145.219,82.33h-4.887V65.784c0-3.889-3.165-7.054-7.054-7.054h-16.677v-4.888h16.677
			c6.583,0,11.941,5.359,11.941,11.941V82.33z"/>
	</g>
	<g>
		<rect x="163.044" y="67.843" style="fill:#8A8A8D;" width="4.888" height="14.487"/>
	</g>
	<g>
		<path style="fill:#8A8A8D;" d="M156.736,49.663c-4.594,0-8.33-3.735-8.33-8.328v-3.426c0-4.596,3.736-8.332,8.33-8.332
			c4.593,0,8.33,3.736,8.33,8.332v3.426C165.066,45.928,161.329,49.663,156.736,49.663z M156.736,34.465
			c-1.899,0-3.444,1.544-3.444,3.444v3.426c0,1.896,1.545,3.439,3.444,3.439s3.443-1.543,3.443-3.439v-3.426
			C160.179,36.009,158.635,34.465,156.736,34.465z"/>
	</g>
	<g>
		<path style="fill:#8A8A8D;" d="M178.167,82.33h-4.886V65.784c0-3.889-3.165-7.054-7.054-7.054H149.55v-4.888h16.677
			c6.583,0,11.94,5.359,11.94,11.941V82.33z"/>
	</g>
	<g>
		<rect x="45.278" y="67.843" style="fill:#8A8A8D;" width="4.887" height="14.487"/>
	</g>
	<g>
		<path style="fill:#8A8A8D;" d="M56.473,49.663c-4.593,0-8.33-3.735-8.33-8.328v-3.426c0-4.596,3.737-8.332,8.33-8.332
			c4.594,0,8.33,3.736,8.33,8.332v3.426C64.803,45.928,61.067,49.663,56.473,49.663z M56.473,34.465
			c-1.899,0-3.443,1.544-3.443,3.444v3.426c0,1.896,1.544,3.439,3.443,3.439s3.444-1.543,3.444-3.439v-3.426
			C59.917,36.009,58.372,34.465,56.473,34.465z"/>
	</g>
	<g>
		<path style="fill:#8A8A8D;" d="M39.929,82.33h-4.887V65.784c0-6.582,5.357-11.941,11.941-11.941h16.678v4.888H46.983
			c-3.89,0-7.054,3.165-7.054,7.054V82.33z"/>
	</g>
	<g>
		<rect x="78.417" y="67.843" style="fill:#8A8A8D;" width="4.886" height="14.487"/>
	</g>
	<g>
		<rect x="95.92" y="67.843" style="fill:#8A8A8D;" width="4.885" height="14.487"/>
	</g>
	<g>
		<path style="fill:#8A8A8D;" d="M89.612,49.663c-4.593,0-8.33-3.735-8.33-8.328v-3.426c0-4.596,3.737-8.332,8.33-8.332
			c4.592,0,8.329,3.736,8.329,8.332v3.426C97.941,45.928,94.204,49.663,89.612,49.663z M89.612,34.465
			c-1.899,0-3.444,1.544-3.444,3.444v3.426c0,1.896,1.545,3.439,3.444,3.439c1.898,0,3.443-1.543,3.443-3.439v-3.426
			C93.055,36.009,91.51,34.465,89.612,34.465z"/>
	</g>
	<g>
		<path style="fill:#8A8A8D;" d="M72.728,82.33h-4.887V65.784c0-6.582,5.357-11.941,11.94-11.941h12.721v4.888H79.782
			c-3.889,0-7.054,3.165-7.054,7.054V82.33z"/>
	</g>
	<g>
		<path style="fill:#8A8A8D;" d="M111.043,82.33h-4.886V65.784c0-3.889-3.165-7.054-7.054-7.054H86.381v-4.888h12.722
			c6.583,0,11.94,5.359,11.94,11.941V82.33z"/>
	</g>
</g>
</svg>
