<?xml version="1.0" encoding="iso-8859-1"?>
<!-- Generator: Adobe Illustrator 16.0.4, SVG Export Plug-In . SVG Version: 6.00 Build 0)  -->
<!DOCTYPE svg PUBLIC "-//W3C//DTD SVG 1.1//EN" "http://www.w3.org/Graphics/SVG/1.1/DTD/svg11.dtd">
<svg version="1.1" id="Layer_1" xmlns="http://www.w3.org/2000/svg" xmlns:xlink="http://www.w3.org/1999/xlink" x="0px" y="0px"
	 width="210px" height="170px" viewBox="0 0 210 170" style="enable-background:new 0 0 210 170;" xml:space="preserve">
<g id="handje_2_">
	<g>
		<path style="fill:#8A8A8D;" d="M113.193,123.853c-0.535,0-1.07-0.203-1.482-0.605c-0.838-0.817-0.853-2.162-0.034-2.998
			l10.037-10.258c0.818-0.839,2.163-0.854,2.998-0.034c0.838,0.82,0.854,2.161,0.033,2.997l-10.035,10.262
			C114.294,123.638,113.744,123.853,113.193,123.853z"/>
	</g>
	<g>
		<path style="fill:#8A8A8D;" d="M90.254,143.818c-2.306,0-4.553-0.822-6.262-2.493L16.487,75.293
			c-3.662-3.581-3.485-9.725,0.395-13.695l45.135-46.139c3.883-3.971,10.022-4.279,13.685-0.703l67.505,66.038
			c1.803,1.766,2.74,4.184,2.635,6.812c-0.103,2.543-1.18,4.985-3.031,6.881c-0.818,0.834-2.163,0.85-3.001,0.032
			c-0.836-0.819-0.852-2.161-0.032-2.999c1.117-1.143,1.766-2.593,1.827-4.085c0.056-1.411-0.427-2.693-1.363-3.608L72.738,17.789
			c-1.993-1.945-5.44-1.662-7.689,0.637L19.914,64.563c-2.244,2.297-2.453,5.751-0.462,7.698l67.506,66.032
			c1.991,1.943,5.438,1.664,7.689-0.631l17.031-17.414c0.82-0.842,2.163-0.854,3-0.033c0.838,0.817,0.853,2.16,0.033,3
			l-17.034,17.413C95.603,142.742,92.89,143.818,90.254,143.818z"/>
	</g>
	<g>
		<path style="fill:#8A8A8D;" d="M199.659,77.829H135.13c-1.172,0-2.121-0.951-2.121-2.123c0-1.169,0.949-2.119,2.121-2.119h64.529
			c1.17,0,2.121,0.95,2.121,2.119C201.779,76.878,200.829,77.829,199.659,77.829z"/>
	</g>
	<g>
		<path style="fill:#8A8A8D;" d="M123.229,113.595H101.88l-0.316-0.102c-2.649-0.846-7.661-4.187-7.661-10.787
			c0-8.207,6.807-10.666,7.097-10.767l0.338-0.118h64.031c1.17,0,2.12,0.95,2.12,2.122c0,1.169-0.95,2.12-2.12,2.12h-63.25
			c-0.944,0.445-3.975,2.223-3.975,6.643c0,4.448,3.437,6.221,4.45,6.647h20.633c1.171,0,2.122,0.948,2.122,2.12
			C125.351,112.644,124.399,113.595,123.229,113.595z"/>
	</g>
	<g>
		<path style="fill:#8A8A8D;" d="M199.659,113.595h-76.43c-1.17,0-2.121-0.951-2.121-2.121c0-1.172,0.951-2.12,2.121-2.12h76.43
			c1.17,0,2.121,0.948,2.121,2.12C201.779,112.644,200.829,113.595,199.659,113.595z"/>
	</g>
	<g>
		<path style="fill:#8A8A8D;" d="M126.47,135.034c-0.54,0-1.078-0.206-1.489-0.613c-0.834-0.823-0.843-2.167-0.019-3l20.982-21.239
			c0.823-0.836,2.166-0.841,2.998-0.018c0.834,0.822,0.842,2.166,0.019,2.998l-20.984,21.239
			C127.563,134.821,127.017,135.034,126.47,135.034z"/>
	</g>
	<g>
		<path style="fill:#8A8A8D;" d="M113.193,123.849c-1.17,0-2.12-0.946-2.12-2.118v-0.004c0-1.171,0.95-2.121,2.12-2.121
			c1.171,0,2.12,0.95,2.12,2.121C115.313,122.896,114.365,123.849,113.193,123.849z"/>
	</g>
	<g>
		<path style="fill:#8A8A8D;" d="M147.185,156.915c-2.334,0-5.104-0.552-7.203-2.653c-2.589-2.588-3.43-5.779-3.693-7.845
			c-2.81-0.252-7.579-1-9.788-3.208c-3.13-3.134-2.241-9.852-2.129-10.607c0.17-1.159,1.241-1.967,2.407-1.787
			c1.159,0.17,1.959,1.251,1.787,2.407c-0.307,2.134-0.224,5.828,0.935,6.988c1.278,1.276,6.045,2.003,8.865,2.089l2.184,0.068
			l-0.133,2.182c-0.001,0.028-0.168,3.981,2.564,6.716c2.042,2.041,5.862,1.344,7.135,1.042l43.5-41.557
			c0.847-0.808,2.19-0.779,2.999,0.068c0.81,0.847,0.78,2.188-0.067,2.997l-44.242,42.264l-0.46,0.151
			C151.688,156.281,149.686,156.915,147.185,156.915z"/>
	</g>
	<g>
		<path style="fill:#8A8A8D;" d="M123.877,135.138c-3.123,0-7.842-0.427-10.18-2.768c-3.241-3.238-2.753-9.553-2.615-10.838
			c0.101-1.078,1.007-1.922,2.111-1.922c1.171,0,2.12,0.949,2.12,2.12c0,0.077-0.004,0.164-0.012,0.241
			c-0.238,2.177-0.061,5.946,1.396,7.399c1.417,1.42,6.562,1.688,9.587,1.428c1.175-0.108,2.195,0.762,2.298,1.93
			c0.1,1.166-0.763,2.194-1.929,2.296C126.189,135.064,125.17,135.138,123.877,135.138z"/>
	</g>
	<g>
		<path style="fill:#8A8A8D;" d="M138.815,145.697c-0.543,0-1.087-0.209-1.501-0.621c-0.828-0.83-0.828-2.174,0-3.002l31.896-31.886
			c0.83-0.828,2.172-0.828,3,0c0.828,0.827,0.828,2.17,0,2.998l-31.896,31.89C139.9,145.488,139.358,145.697,138.815,145.697z"/>
	</g>
</g>
</svg>
