<?xml version="1.0" encoding="iso-8859-1"?>
<!-- Generator: Adobe Illustrator 16.0.4, SVG Export Plug-In . SVG Version: 6.00 Build 0)  -->
<!DOCTYPE svg PUBLIC "-//W3C//DTD SVG 1.1//EN" "http://www.w3.org/Graphics/SVG/1.1/DTD/svg11.dtd">
<svg version="1.1" id="Layer_1" xmlns="http://www.w3.org/2000/svg" xmlns:xlink="http://www.w3.org/1999/xlink" x="0px" y="0px"
	 width="210px" height="112px" viewBox="0 0 210 112" style="enable-background:new 0 0 210 112;" xml:space="preserve">
<g>
	<g>
		<path style="fill:#8A8A8D;" d="M174.852,110.887H25.284c-5.667,0-10.314-4.646-10.314-10.314V10.316
			C14.97,4.648,19.617,0,25.284,0h149.567c5.668,0,10.315,4.648,10.315,10.316v18.051h-5.158V10.316
			c0-2.834-2.323-5.158-5.157-5.158H25.284c-2.834,0-5.157,2.324-5.157,5.158v90.256c0,2.834,2.323,5.156,5.157,5.156h149.567
			c2.834,0,5.157-2.322,5.157-5.156V77.363h5.158v23.209C185.167,106.24,180.52,110.887,174.852,110.887z"/>
	</g>
	<g>
		<rect x="35.6" y="64.469" style="fill:#8A8A8D;" width="82.52" height="5.158"/>
	</g>
	<g>
		<rect x="35.6" y="82.52" style="fill:#8A8A8D;" width="46.417" height="5.158"/>
	</g>
	<g>
		<rect x="17.549" y="23.209" style="fill:#8A8A8D;" width="162.46" height="5.158"/>
	</g>
	<g>
		<rect x="17.549" y="43.84" style="fill:#8A8A8D;" width="134.095" height="5.156"/>
	</g>
</g>
<g>
	<path style="fill:#8A8A8D;" d="M181.25,69.609c-9.57,0-17.356-7.786-17.356-17.356s7.786-17.356,17.356-17.356
		s17.356,7.786,17.356,17.356S190.82,69.609,181.25,69.609z M181.25,39.896c-6.813,0-12.356,5.543-12.356,12.356
		s5.543,12.356,12.356,12.356s12.356-5.543,12.356-12.356S188.063,39.896,181.25,39.896z"/>
</g>
<g>
	
		<rect x="187.486" y="69.837" transform="matrix(0.7071 0.7071 -0.7071 0.7071 109.4711 -119.6129)" style="fill:#8A8A8D;" width="23.271" height="4.999"/>
</g>
</svg>
