<?xml version="1.0" encoding="iso-8859-1"?>
<!-- Generator: Adobe Illustrator 16.0.4, SVG Export Plug-In . SVG Version: 6.00 Build 0)  -->
<!DOCTYPE svg PUBLIC "-//W3C//DTD SVG 1.1//EN" "http://www.w3.org/Graphics/SVG/1.1/DTD/svg11.dtd">
<svg version="1.1" id="Layer_1" xmlns="http://www.w3.org/2000/svg" xmlns:xlink="http://www.w3.org/1999/xlink" x="0px" y="0px"
	 width="210px" height="112px" viewBox="0 0 210 112" style="enable-background:new 0 0 210 112;" xml:space="preserve">
<g>
	<g>
		<g>
			<path style="fill:#8A8A8D;" d="M175.852,110.887H26.284c-5.667,0-10.314-4.646-10.314-10.314V10.316
				C15.97,4.648,20.617,0,26.284,0h149.567c5.668,0,10.315,4.648,10.315,10.316v18.052h-5.158V10.316
				c0-2.834-2.323-5.157-5.157-5.157H26.284c-2.834,0-5.157,2.323-5.157,5.157v90.256c0,2.834,2.323,5.156,5.157,5.156h149.567
				c2.834,0,5.157-2.322,5.157-5.156V77.363h5.158v23.209C186.167,106.241,181.52,110.887,175.852,110.887z"/>
		</g>
		<g>
			<rect x="36.6" y="64.469" style="fill:#8A8A8D;" width="82.52" height="5.158"/>
		</g>
		<g>
			<rect x="36.6" y="82.52" style="fill:#8A8A8D;" width="46.417" height="5.158"/>
		</g>
		<g>
			<rect x="18.549" y="23.209" style="fill:#8A8A8D;" width="162.46" height="5.159"/>
		</g>
	</g>
	<g>
		
			<rect x="162.962" y="49.043" transform="matrix(0.7071 0.7071 -0.7071 0.7071 89.7412 -113.5685)" style="fill:#8A8A8D;" width="37.996" height="4.999"/>
	</g>
	<g>
		
			<rect x="180.827" y="32.545" transform="matrix(0.7071 0.7071 -0.7071 0.7071 90.1417 -114.5353)" style="fill:#8A8A8D;" width="4.999" height="37.996"/>
	</g>
</g>
</svg>
