<?xml version="1.0" encoding="iso-8859-1"?>
<!-- Generator: Adobe Illustrator 16.0.4, SVG Export Plug-In . SVG Version: 6.00 Build 0)  -->
<!DOCTYPE svg PUBLIC "-//W3C//DTD SVG 1.1//EN" "http://www.w3.org/Graphics/SVG/1.1/DTD/svg11.dtd">
<svg version="1.1" id="Layer_1" xmlns="http://www.w3.org/2000/svg" xmlns:xlink="http://www.w3.org/1999/xlink" x="0px" y="0px"
	 width="210px" height="112px" viewBox="0 0 210 112" style="enable-background:new 0 0 210 112;" xml:space="preserve">
<g>
	<path style="fill:#8A8A8D;" d="M145,95.666H84v-61h0.138C85.559,19.003,98.542,7,114.5,7s28.941,12.003,30.362,27.666h0.117
		l0.021,2V95.666z M88,91.666h53V37.232l-0.02-0.509C140.564,22.299,128.933,11,114.5,11S88.436,22.299,88.02,36.724l-0.02,0.7
		V91.666z"/>
</g>
<g>
	<path style="fill:#8A8A8D;" d="M114.769,31.333c-4.411,0-8-3.588-8-7.999c0-4.412,3.589-8.001,8-8.001s8,3.589,8,8.001
		C122.769,27.745,119.18,31.333,114.769,31.333z M114.769,19.333c-2.206,0-4,1.795-4,4.001c0,2.205,1.794,3.999,4,3.999
		s4-1.794,4-3.999C118.769,21.128,116.975,19.333,114.769,19.333z"/>
</g>
<g>
	<path style="fill:#FFFFFF;" d="M87.333,19c-9.941,0-18,8.06-18,18c0,6.519,3.477,12.211,8.667,15.369c0,0,0,41.518,0,41.631
		c0,4.971,4.03,9,9,9s9-4.029,9-9c0-0.113-4.485-5.334-4.485-5.334l1.42-1.42l2.58-2.58l-4-4l4-4l-4-4L96,68.181V52.775
		c5.562-3.063,9.333-8.978,9.333-15.775C105.333,27.06,97.275,19,87.333,19z"/>
	<path style="fill:#8A8A8D;" d="M87,105c-6.065,0-11-4.935-11-11V53.456c-5.448-3.742-8.667-9.812-8.667-16.456
		c0-11.028,8.972-20,20-20s20,8.972,20,20c0,6.887-3.547,13.263-9.333,16.916v15.093l-3.657,3.657l4,4l-4,4l4,4L94.24,88.77
		C98,93.152,98,93.222,98,94C98,100.065,93.065,105,87,105z M87.333,21c-8.822,0-16,7.178-16,16c0,5.617,2.881,10.724,7.706,13.661
		L80,51.245V94c0,3.859,3.14,7,7,7c3.641,0,6.642-2.795,6.97-6.352c-0.75-0.907-2.433-2.887-3.973-4.679l-1.208-1.407l3.896-3.896
		l-4-4l4-4l-4-4L94,67.353V51.594l1.035-0.57c5.119-2.819,8.298-8.192,8.298-14.023C103.333,28.178,96.156,21,87.333,21z"/>
</g>
<g>
	<path style="fill:#8A8A8D;" d="M86.769,39.333c-4.411,0-8-3.588-8-7.999c0-4.412,3.589-8.001,8-8.001s8,3.589,8,8.001
		C94.769,35.745,91.18,39.333,86.769,39.333z M86.769,27.333c-2.206,0-4,1.795-4,4.001c0,2.205,1.794,3.999,4,3.999s4-1.794,4-3.999
		C90.769,29.128,88.975,27.333,86.769,27.333z"/>
</g>
<g>
	<path style="fill:#8A8A8D;" d="M96.742,37.786c-3.441,0-6.851-0.847-9.975-2.514c-0.975-0.521-1.343-1.732-0.822-2.707
		c0.52-0.973,1.73-1.345,2.706-0.822c4.061,2.167,8.719,2.625,13.116,1.29c4.397-1.336,8.013-4.308,10.18-8.367
		c0.52-0.975,1.731-1.346,2.706-0.823c0.975,0.521,1.343,1.732,0.822,2.706c-2.67,5.003-7.126,8.665-12.545,10.312
		C100.894,37.479,98.812,37.786,96.742,37.786z"/>
</g>
</svg>
