<?xml version="1.0" encoding="utf-8"?>
<!-- Generator: Adobe Illustrator 18.1.1, SVG Export Plug-In . SVG Version: 6.00 Build 0)  -->
<svg version="1.1" xmlns="http://www.w3.org/2000/svg" xmlns:xlink="http://www.w3.org/1999/xlink" x="0px" y="0px"
	 viewBox="0 0 420.9 297.6" enable-background="new 0 0 420.9 297.6" xml:space="preserve">
<g id="bg" display="none">
	<rect y="0" display="inline" fill="#3D3D3D" width="420.9" height="297.6"/>
</g>
<g id="_x30_2_baseline" display="none">
	<g display="inline">
		<g id="_x32_dotstwice_1_">
			<path fill="#FFFFFF" d="M164.3,144.7L164.3,144.7l1.1,1.3l0.1-0.1c0.8-0.8,1.5-1.1,2.2-1.1c1.2,0,1.9,0.6,1.9,1.7
				c0,1.6-2,3.4-5.2,6.2l0,0v1.3h7.9v-1.9h-3.1c-0.5,0-1,0-1.5,0.1c2.2-2,4.1-3.9,4.1-5.8c0-2-1.5-3.4-3.7-3.4
				C166.6,143,165.5,143.5,164.3,144.7z"/>
			<path fill="#FFFFFF" d="M184.3,152.5L184.3,152.5l0.2,1.3h1.7v-15.3h-2.1v3.9l0.1,1.9c-0.9-0.8-1.8-1.3-3.1-1.3
				c-2.4,0-4.7,2.1-4.7,5.5c0,3.5,1.8,5.5,4.6,5.5C182.2,154,183.4,153.3,184.3,152.5z M178.6,148.5c0-2.3,1.4-3.7,3-3.7
				c0.8,0,1.7,0.3,2.5,1.1v5c-0.8,0.9-1.7,1.4-2.7,1.4C179.7,152.3,178.6,150.9,178.6,148.5z"/>
			<path fill="#FFFFFF" d="M200.9,148.6c0-3.5-2.5-5.5-5.3-5.5c-2.8,0-5.3,2-5.3,5.5c0,3.5,2.5,5.5,5.3,5.5
				C198.4,154.1,200.9,152.1,200.9,148.6z M192.6,148.6c0-2.3,1.2-3.8,3.1-3.8s3.1,1.5,3.1,3.8c0,2.3-1.2,3.8-3.1,3.8
				S192.6,150.8,192.6,148.6z"/>
			<path fill="#FFFFFF" d="M213.9,153.4l-0.4-1.6c-0.7,0.3-1.5,0.5-2.4,0.5c-1.9,0-2.5-0.9-2.5-2.7V145h5v-1.7h-5v-2.9h-1.8
				l-0.3,2.9l-3,0.1v1.6h2.9v4.6c0,2.7,1.1,4.4,4.2,4.4C211.8,154,213,153.8,213.9,153.4z"/>
			<path fill="#FFFFFF" d="M228,150.8c0-1.7-1.5-2.5-4.1-3.1c-1.8-0.5-3.1-0.9-3.1-1.7c0-0.8,0.6-1.3,2.4-1.3c1.3,0,2.4,0.5,3.3,1.1
				l1-1.3c-1.1-0.7-2.7-1.4-4.3-1.4c-2.9,0-4.5,1.3-4.5,3.1c0,1.5,1.9,2.5,3.9,3c2.3,0.6,3.3,1.1,3.3,1.9c0,0.8-0.8,1.4-2.6,1.4
				c-1.7,0-3-0.5-4.2-1.4l-1,1.4c1.3,0.9,3.1,1.6,5.2,1.6C226.3,154,228,152.6,228,150.8z"/>
			<path fill="#FFFFFF" d="M241,153.4l-0.4-1.6c-0.7,0.3-1.5,0.5-2.4,0.5c-1.9,0-2.5-0.9-2.5-2.7V145h5v-1.7h-5v-2.9h-1.8l-0.3,2.9
				l-3,0.1v1.6h2.9v4.6c0,2.7,1.1,4.4,4.2,4.4C238.9,154,240.1,153.8,241,153.4z"/>
			<path fill="#FFFFFF" d="M247.4,153.8h2.5l1.1-4.8c0.2-1.3,0.4-2.2,0.5-3.1h0.1c0.2,1.1,0.3,2,0.5,3.1l1.1,4.9h2.5l2.1-10.5h-2
				l-1.1,5.8c-0.2,1-0.3,2-0.5,3h-0.1c-0.2-1-0.4-2-0.6-3l-1.2-4.9h-1.7l-1.1,4.9c-0.2,1-0.4,2-0.6,3h-0.1c-0.2-1-0.3-2-0.5-3
				l-1.1-5.8h-2.1L247.4,153.8z"/>
			<path fill="#FFFFFF" d="M266,141.2c0.9,0,1.6-0.6,1.6-1.5c0-0.9-0.7-1.5-1.6-1.5c-0.9,0-1.6,0.6-1.6,1.5
				C264.4,140.6,265.1,141.2,266,141.2z"/>
			<polygon fill="#FFFFFF" points="260.4,145 265.1,145 265.1,153.8 267.2,153.8 267.2,143.2 260.4,143.2 			"/>
			<path fill="#FFFFFF" d="M281.8,152.4l-0.9-1.4c-0.8,0.7-1.9,1.2-3.1,1.2c-2.2,0-3.8-1.5-3.8-3.8c0-2.3,1.6-3.8,3.8-3.8
				c1,0,1.9,0.4,2.7,1.1l1-1.4c-0.9-0.8-2.2-1.5-3.9-1.5c-3.2,0-5.9,2-5.9,5.5c0,3.5,2.5,5.5,5.8,5.5
				C279.1,154,280.6,153.5,281.8,152.4z"/>
			<path fill="#FFFFFF" d="M295.7,152.8l-0.8-1.4c-0.9,0.6-1.9,0.9-3.1,0.9c-2.1,0-3.7-1.2-3.8-3.3h7.9c0-0.3,0.1-0.7,0.1-1.1
				c0-2.9-1.8-5-4.9-5c-2.7,0-5.4,2.1-5.4,5.5c0,3.5,2.5,5.5,5.7,5.5C293.2,154,294.6,153.5,295.7,152.8z M291.3,144.7
				c1.8,0,2.8,1.1,2.8,2.9h-6.1C288.4,145.7,289.8,144.7,291.3,144.7z"/>
			<path id="open_i_1pt_1_" display="none" fill="none" stroke="#FFFFFF" stroke-miterlimit="10" d="M259,141c0.8,0,1.3-0.5,1.3-1.3
				c0-0.8-0.6-1.3-1.3-1.3c-0.8,0-1.3,0.5-1.3,1.3C257.7,140.5,258.2,141,259,141z"/>
		</g>
		<g>
			<defs>
				<path id="SVGID_1_" d="M149.3,157.8l2.9-10.7c2.4,0.4,4.7-1.1,5.3-3.4c0.7-2.5-0.8-5.1-3.4-5.8c-2.4-0.6-4.8,0.7-5.6,2.9
					l-10.7-2.9c0.3-2.1-1-4.1-3.1-4.7c-2.3-0.6-4.6,0.7-5.2,3c-0.6,2.1,0.6,4.2,2.5,5l-3,11.2c-2.1-0.3-4.1,1-4.7,3.1
					c-0.6,2.3,0.7,4.6,3,5.2c2.1,0.6,4.2-0.6,5-2.5l11.2,3c-0.3,2.1,1,4.1,3.1,4.7c2.3,0.6,4.6-0.7,5.2-3
					C152.4,160.7,151.3,158.6,149.3,157.8z M148.4,157.6c-1.9-0.3-3.8,0.8-4.5,2.6l-11.2-3c0.3-1.9-0.8-3.8-2.6-4.5l3-11.2
					c1.9,0.3,3.8-0.8,4.5-2.6l10.7,2.9c-0.3,2.2,0.9,4.3,3,5.1L148.4,157.6z M151.5,145.9c-1.5-0.6-2.5-2.3-2.3-3.9
					c0-0.2,0-0.3,0.1-0.5c0-0.2,0.1-0.3,0.2-0.5c0.7-1.7,2.6-2.7,4.4-2.2c2,0.5,3.2,2.6,2.7,4.6c-0.5,1.8-2.3,3-4.1,2.7
					c-0.2,0-0.3,0-0.5-0.1C151.8,146,151.6,145.9,151.5,145.9z"/>
			</defs>
			<clipPath id="SVGID_2_">
				<use xlink:href="#SVGID_1_"  overflow="visible"/>
			</clipPath>
			<g clip-path="url(#SVGID_2_)">
				
					<rect x="123.9" y="132.1" transform="matrix(-0.9659 -0.2588 0.2588 -0.9659 238.1642 329.2529)" fill="#FFFFFF" width="33.6" height="33.6"/>
			</g>
		</g>
		<g>
			<path fill="#FFFFFF" d="M164.4,164.6c0-0.4,0.1-0.7,0.2-1c0.1-0.3,0.3-0.6,0.6-0.8s0.5-0.4,0.8-0.5c0.3-0.1,0.7-0.2,1-0.2
				c0.4,0,0.7,0.1,1,0.2c0.3,0.1,0.5,0.3,0.7,0.5l-0.5,0.7c-0.2-0.1-0.4-0.3-0.6-0.3c-0.2-0.1-0.4-0.1-0.6-0.1
				c-0.5,0-0.8,0.1-1.1,0.4c-0.3,0.3-0.4,0.7-0.4,1.1c0,0.2,0,0.4,0.1,0.6c0.1,0.2,0.2,0.4,0.3,0.5c0.1,0.1,0.3,0.2,0.5,0.3
				c0.2,0.1,0.4,0.1,0.6,0.1c0.3,0,0.5-0.1,0.7-0.2c0.2-0.1,0.4-0.2,0.6-0.4l0.5,0.7c-0.3,0.2-0.6,0.4-0.9,0.5
				c-0.3,0.1-0.7,0.2-1,0.2c-0.4,0-0.7-0.1-1-0.2c-0.3-0.1-0.6-0.3-0.8-0.5c-0.2-0.2-0.4-0.5-0.5-0.8S164.4,165,164.4,164.6z"/>
			<path fill="#FFFFFF" d="M171.3,164.6c0-0.4,0.1-0.7,0.2-1c0.1-0.3,0.3-0.6,0.5-0.8s0.5-0.4,0.8-0.5c0.3-0.1,0.6-0.2,0.9-0.2
				c0.3,0,0.6,0.1,0.9,0.2c0.3,0.1,0.5,0.3,0.8,0.5s0.4,0.5,0.5,0.8c0.1,0.3,0.2,0.6,0.2,1c0,0.4-0.1,0.7-0.2,1
				c-0.1,0.3-0.3,0.6-0.5,0.8s-0.5,0.4-0.8,0.5c-0.3,0.1-0.6,0.2-0.9,0.2c-0.3,0-0.6-0.1-0.9-0.2c-0.3-0.1-0.5-0.3-0.8-0.5
				s-0.4-0.5-0.5-0.8S171.3,165,171.3,164.6z M172.4,164.6c0,0.5,0.1,0.8,0.3,1.1c0.2,0.3,0.5,0.4,0.9,0.4s0.7-0.1,0.9-0.4
				c0.2-0.3,0.3-0.7,0.3-1.1c0-0.5-0.1-0.9-0.3-1.1c-0.2-0.3-0.5-0.4-0.9-0.4s-0.7,0.1-0.9,0.4C172.5,163.7,172.4,164.1,172.4,164.6
				z"/>
			<path fill="#FFFFFF" d="M178.6,162.3h0.9l0.1,0.7h0c0.2-0.2,0.5-0.4,0.7-0.6c0.3-0.2,0.6-0.2,0.9-0.2c0.5,0,0.9,0.2,1.2,0.5
				s0.4,0.8,0.4,1.4v2.9h-1.1v-2.7c0-0.4-0.1-0.7-0.2-0.8c-0.1-0.2-0.4-0.3-0.7-0.3c-0.2,0-0.4,0.1-0.6,0.2
				c-0.2,0.1-0.4,0.3-0.6,0.5v3.2h-1.1V162.3z"/>
			<path fill="#FFFFFF" d="M185.7,162.3h0.9l0.1,0.7h0c0.2-0.2,0.5-0.4,0.7-0.6c0.3-0.2,0.6-0.2,0.9-0.2c0.5,0,0.9,0.2,1.2,0.5
				s0.4,0.8,0.4,1.4v2.9h-1.1v-2.7c0-0.4-0.1-0.7-0.2-0.8c-0.1-0.2-0.4-0.3-0.7-0.3c-0.2,0-0.4,0.1-0.6,0.2
				c-0.2,0.1-0.4,0.3-0.6,0.5v3.2h-1.1V162.3z"/>
			<path fill="#FFFFFF" d="M192.6,164.6c0-0.4,0.1-0.7,0.2-1c0.1-0.3,0.3-0.6,0.5-0.8c0.2-0.2,0.5-0.4,0.8-0.5
				c0.3-0.1,0.6-0.2,0.9-0.2c0.3,0,0.7,0.1,0.9,0.2c0.3,0.1,0.5,0.3,0.7,0.5s0.3,0.4,0.4,0.7c0.1,0.3,0.1,0.6,0.1,0.9
				c0,0.1,0,0.2,0,0.3c0,0.1,0,0.2,0,0.2h-3.4c0,0.4,0.2,0.7,0.5,1c0.3,0.2,0.6,0.3,1.1,0.3c0.2,0,0.5,0,0.7-0.1s0.4-0.2,0.6-0.3
				l0.4,0.7c-0.3,0.2-0.5,0.3-0.8,0.4c-0.3,0.1-0.6,0.2-1,0.2c-0.4,0-0.7-0.1-1-0.2c-0.3-0.1-0.6-0.3-0.8-0.5s-0.4-0.5-0.5-0.8
				C192.6,165.3,192.6,165,192.6,164.6z M196.1,164.1c0-0.4-0.1-0.6-0.3-0.8s-0.5-0.3-0.8-0.3c-0.3,0-0.6,0.1-0.8,0.3
				s-0.4,0.5-0.5,0.9H196.1z"/>
			<path fill="#FFFFFF" d="M199.7,164.6c0-0.4,0.1-0.7,0.2-1c0.1-0.3,0.3-0.6,0.6-0.8s0.5-0.4,0.8-0.5c0.3-0.1,0.7-0.2,1-0.2
				c0.4,0,0.7,0.1,1,0.2c0.3,0.1,0.5,0.3,0.7,0.5l-0.5,0.7c-0.2-0.1-0.4-0.3-0.6-0.3c-0.2-0.1-0.4-0.1-0.6-0.1
				c-0.5,0-0.8,0.1-1.1,0.4c-0.3,0.3-0.4,0.7-0.4,1.1c0,0.2,0,0.4,0.1,0.6c0.1,0.2,0.2,0.4,0.3,0.5c0.1,0.1,0.3,0.2,0.5,0.3
				c0.2,0.1,0.4,0.1,0.6,0.1c0.3,0,0.5-0.1,0.7-0.2c0.2-0.1,0.4-0.2,0.6-0.4l0.5,0.7c-0.3,0.2-0.6,0.4-0.9,0.5
				c-0.3,0.1-0.7,0.2-1,0.2c-0.4,0-0.7-0.1-1-0.2c-0.3-0.1-0.6-0.3-0.8-0.5c-0.2-0.2-0.4-0.5-0.5-0.8S199.7,165,199.7,164.6z"/>
			<path fill="#FFFFFF" d="M207.9,163.1h-1.2v-0.8l1.3,0l0.1-1.3h0.9v1.3h2.1v0.9H209v1.9c0,0.4,0.1,0.7,0.2,0.9
				c0.2,0.2,0.4,0.3,0.8,0.3c0.2,0,0.4,0,0.6-0.1c0.2,0,0.3-0.1,0.5-0.1l0.2,0.8c-0.2,0.1-0.4,0.1-0.7,0.2c-0.3,0.1-0.5,0.1-0.8,0.1
				c-0.4,0-0.7,0-0.9-0.1s-0.4-0.2-0.6-0.4c-0.1-0.2-0.3-0.4-0.3-0.6c-0.1-0.2-0.1-0.5-0.1-0.8V163.1z"/>
			<path fill="#FFFFFF" d="M214,162.3h3.1v4.7H216v-3.8h-2V162.3z M216.5,161.4c-0.2,0-0.4-0.1-0.6-0.2c-0.1-0.1-0.2-0.3-0.2-0.5
				s0.1-0.4,0.2-0.5c0.1-0.1,0.3-0.2,0.6-0.2c0.2,0,0.4,0.1,0.6,0.2c0.1,0.1,0.2,0.3,0.2,0.5s-0.1,0.4-0.2,0.5
				C216.9,161.4,216.7,161.4,216.5,161.4z"/>
			<path fill="#FFFFFF" d="M221,162.3h0.9l0.1,0.7h0c0.2-0.2,0.5-0.4,0.7-0.6s0.6-0.2,0.9-0.2c0.5,0,0.9,0.2,1.2,0.5
				c0.3,0.3,0.4,0.8,0.4,1.4v2.9h-1.1v-2.7c0-0.4-0.1-0.7-0.2-0.8c-0.1-0.2-0.4-0.3-0.7-0.3c-0.2,0-0.4,0.1-0.6,0.2
				c-0.2,0.1-0.4,0.3-0.6,0.5v3.2H221V162.3z"/>
			<path fill="#FFFFFF" d="M227.9,167.7c0-0.2,0.1-0.4,0.2-0.5s0.3-0.3,0.6-0.4v0c-0.1-0.1-0.2-0.2-0.3-0.3
				c-0.1-0.1-0.1-0.3-0.1-0.5c0-0.2,0.1-0.3,0.2-0.5c0.1-0.2,0.2-0.3,0.4-0.4v0c-0.2-0.1-0.3-0.3-0.4-0.5c-0.1-0.2-0.2-0.4-0.2-0.7
				c0-0.3,0.1-0.5,0.2-0.7s0.2-0.4,0.4-0.5c0.2-0.1,0.4-0.3,0.6-0.3c0.2-0.1,0.5-0.1,0.7-0.1c0.3,0,0.5,0,0.7,0.1h1.9v0.8h-1.1
				c0.1,0.1,0.2,0.2,0.2,0.3c0.1,0.1,0.1,0.3,0.1,0.5c0,0.3,0,0.5-0.1,0.7c-0.1,0.2-0.2,0.4-0.4,0.5s-0.4,0.2-0.6,0.3
				c-0.2,0.1-0.5,0.1-0.7,0.1c-0.2,0-0.5,0-0.7-0.1c-0.2,0.1-0.3,0.3-0.3,0.4c0,0.3,0.3,0.4,0.9,0.4h1c0.6,0,1.1,0.1,1.4,0.3
				c0.3,0.2,0.5,0.5,0.5,0.9c0,0.2-0.1,0.4-0.2,0.6c-0.1,0.2-0.3,0.4-0.5,0.5c-0.2,0.1-0.5,0.3-0.8,0.4c-0.3,0.1-0.7,0.1-1.1,0.1
				c-0.3,0-0.6,0-0.9-0.1s-0.5-0.1-0.7-0.2c-0.2-0.1-0.3-0.2-0.4-0.4S227.9,167.9,227.9,167.7z M228.8,167.6c0,0.2,0.1,0.4,0.3,0.5
				c0.2,0.1,0.6,0.2,1,0.2c0.2,0,0.4,0,0.6-0.1s0.3-0.1,0.5-0.2c0.1-0.1,0.2-0.2,0.3-0.2c0.1-0.1,0.1-0.2,0.1-0.3
				c0-0.2-0.1-0.3-0.2-0.4c-0.2-0.1-0.4-0.1-0.7-0.1H230c-0.2,0-0.3,0-0.4,0c-0.1,0-0.2,0-0.3-0.1c-0.2,0.1-0.3,0.2-0.4,0.3
				C228.9,167.4,228.8,167.5,228.8,167.6z M230.1,164.8c0.2,0,0.4-0.1,0.6-0.2c0.2-0.2,0.3-0.4,0.3-0.7c0-0.3-0.1-0.5-0.3-0.7
				c-0.2-0.2-0.4-0.3-0.6-0.3c-0.2,0-0.4,0.1-0.6,0.3c-0.2,0.2-0.3,0.4-0.3,0.7c0,0.3,0.1,0.5,0.3,0.7
				C229.6,164.7,229.8,164.8,230.1,164.8z"/>
			<path fill="#FFFFFF" d="M243.3,163.1H242v-0.8l1.3,0l0.1-1.3h0.9v1.3h2.1v0.9h-2.1v1.9c0,0.4,0.1,0.7,0.2,0.9
				c0.2,0.2,0.4,0.3,0.8,0.3c0.2,0,0.4,0,0.6-0.1c0.2,0,0.3-0.1,0.5-0.1l0.2,0.8c-0.2,0.1-0.4,0.1-0.7,0.2s-0.5,0.1-0.8,0.1
				c-0.4,0-0.7,0-0.9-0.1c-0.2-0.1-0.4-0.2-0.6-0.4c-0.1-0.2-0.3-0.4-0.3-0.6c-0.1-0.2-0.1-0.5-0.1-0.8V163.1z"/>
			<path fill="#FFFFFF" d="M249.3,160.2h1.1v1.7l-0.1,1c0.2-0.2,0.5-0.4,0.7-0.6c0.3-0.2,0.6-0.2,0.9-0.2c0.5,0,0.9,0.2,1.2,0.5
				s0.4,0.8,0.4,1.4v2.9h-1.1v-2.7c0-0.4-0.1-0.7-0.2-0.8c-0.1-0.2-0.4-0.3-0.7-0.3c-0.2,0-0.4,0.1-0.6,0.2
				c-0.2,0.1-0.4,0.3-0.6,0.5v3.2h-1.1V160.2z"/>
			<path fill="#FFFFFF" d="M256.2,164.6c0-0.4,0.1-0.7,0.2-1c0.1-0.3,0.3-0.6,0.5-0.8c0.2-0.2,0.5-0.4,0.8-0.5
				c0.3-0.1,0.6-0.2,0.9-0.2c0.3,0,0.7,0.1,0.9,0.2c0.3,0.1,0.5,0.3,0.7,0.5c0.2,0.2,0.3,0.4,0.4,0.7c0.1,0.3,0.1,0.6,0.1,0.9
				c0,0.1,0,0.2,0,0.3c0,0.1,0,0.2,0,0.2h-3.4c0,0.4,0.2,0.7,0.5,1c0.3,0.2,0.6,0.3,1.1,0.3c0.2,0,0.5,0,0.7-0.1s0.4-0.2,0.6-0.3
				l0.4,0.7c-0.3,0.2-0.5,0.3-0.8,0.4s-0.6,0.2-1,0.2c-0.4,0-0.7-0.1-1-0.2c-0.3-0.1-0.6-0.3-0.8-0.5c-0.2-0.2-0.4-0.5-0.5-0.8
				C256.3,165.3,256.2,165,256.2,164.6z M259.7,164.1c0-0.4-0.1-0.6-0.3-0.8c-0.2-0.2-0.5-0.3-0.8-0.3c-0.3,0-0.6,0.1-0.8,0.3
				s-0.4,0.5-0.5,0.9H259.7z"/>
			<path fill="#FFFFFF" d="M270.2,164.6c0-0.4,0.1-0.7,0.2-1c0.1-0.3,0.3-0.6,0.5-0.8c0.2-0.2,0.4-0.4,0.7-0.5s0.5-0.2,0.8-0.2
				c0.3,0,0.5,0,0.7,0.1c0.2,0.1,0.4,0.2,0.6,0.4l0-0.8v-1.7h1.1v6.7h-0.9l-0.1-0.5h0c-0.2,0.2-0.4,0.3-0.6,0.5
				c-0.2,0.1-0.5,0.2-0.8,0.2c-0.3,0-0.6-0.1-0.8-0.2c-0.2-0.1-0.5-0.3-0.6-0.5c-0.2-0.2-0.3-0.5-0.4-0.8
				C270.3,165.3,270.2,165,270.2,164.6z M271.4,164.6c0,0.5,0.1,0.9,0.3,1.2s0.5,0.4,0.8,0.4c0.4,0,0.7-0.2,1.1-0.6v-2.1
				c-0.2-0.2-0.3-0.3-0.5-0.3c-0.2-0.1-0.3-0.1-0.5-0.1c-0.2,0-0.3,0-0.5,0.1s-0.3,0.2-0.4,0.3c-0.1,0.1-0.2,0.3-0.3,0.5
				C271.4,164.1,271.4,164.3,271.4,164.6z"/>
			<path fill="#FFFFFF" d="M277.3,164.6c0-0.4,0.1-0.7,0.2-1c0.1-0.3,0.3-0.6,0.5-0.8c0.2-0.2,0.5-0.4,0.8-0.5
				c0.3-0.1,0.6-0.2,0.9-0.2c0.3,0,0.6,0.1,0.9,0.2c0.3,0.1,0.5,0.3,0.8,0.5c0.2,0.2,0.4,0.5,0.5,0.8c0.1,0.3,0.2,0.6,0.2,1
				c0,0.4-0.1,0.7-0.2,1s-0.3,0.6-0.5,0.8c-0.2,0.2-0.5,0.4-0.8,0.5c-0.3,0.1-0.6,0.2-0.9,0.2c-0.3,0-0.6-0.1-0.9-0.2
				c-0.3-0.1-0.5-0.3-0.8-0.5c-0.2-0.2-0.4-0.5-0.5-0.8S277.3,165,277.3,164.6z M278.4,164.6c0,0.5,0.1,0.8,0.3,1.1
				c0.2,0.3,0.5,0.4,0.9,0.4c0.4,0,0.7-0.1,0.9-0.4c0.2-0.3,0.3-0.7,0.3-1.1c0-0.5-0.1-0.9-0.3-1.1c-0.2-0.3-0.5-0.4-0.9-0.4
				c-0.4,0-0.7,0.1-0.9,0.4C278.5,163.7,278.4,164.1,278.4,164.6z"/>
			<path fill="#FFFFFF" d="M285.7,163.1h-1.2v-0.8l1.3,0l0.1-1.3h0.9v1.3h2.1v0.9h-2.1v1.9c0,0.4,0.1,0.7,0.2,0.9
				c0.2,0.2,0.4,0.3,0.8,0.3c0.2,0,0.4,0,0.6-0.1c0.2,0,0.3-0.1,0.5-0.1l0.2,0.8c-0.2,0.1-0.4,0.1-0.7,0.2c-0.3,0.1-0.5,0.1-0.8,0.1
				c-0.4,0-0.7,0-0.9-0.1c-0.2-0.1-0.4-0.2-0.6-0.4c-0.1-0.2-0.3-0.4-0.3-0.6c-0.1-0.2-0.1-0.5-0.1-0.8V163.1z"/>
			<path fill="#FFFFFF" d="M292,165.6c0.3,0.2,0.5,0.3,0.8,0.4c0.3,0.1,0.6,0.2,1,0.2c0.4,0,0.6-0.1,0.8-0.2s0.3-0.2,0.3-0.4
				c0-0.2-0.1-0.3-0.3-0.4c-0.2-0.1-0.6-0.2-1-0.4c-0.2-0.1-0.4-0.1-0.6-0.2c-0.2-0.1-0.4-0.2-0.6-0.3c-0.2-0.1-0.3-0.2-0.4-0.4
				c-0.1-0.1-0.1-0.3-0.1-0.5c0-0.4,0.2-0.7,0.5-1c0.4-0.3,0.9-0.4,1.5-0.4c0.4,0,0.7,0.1,1.1,0.2c0.3,0.1,0.6,0.3,0.9,0.4l-0.5,0.7
				c-0.2-0.1-0.4-0.3-0.7-0.3c-0.2-0.1-0.5-0.1-0.8-0.1c-0.4,0-0.6,0-0.8,0.1c-0.1,0.1-0.2,0.2-0.2,0.4c0,0.1,0,0.2,0.1,0.2
				s0.2,0.1,0.3,0.2s0.3,0.1,0.4,0.2c0.2,0.1,0.3,0.1,0.5,0.1c0.3,0.1,0.5,0.1,0.7,0.2c0.2,0.1,0.4,0.2,0.6,0.3
				c0.2,0.1,0.3,0.2,0.4,0.4c0.1,0.1,0.1,0.3,0.1,0.5c0,0.2,0,0.4-0.1,0.6s-0.2,0.3-0.4,0.5s-0.4,0.2-0.7,0.3
				c-0.3,0.1-0.6,0.1-0.9,0.1c-0.4,0-0.9-0.1-1.3-0.2c-0.4-0.1-0.7-0.3-1-0.5L292,165.6z"/>
		</g>
	</g>
</g>
<g id="_x30_2_baseline_invert">
	<g>
		<g id="_x32_dotstwice_2_">
			<path fill="#3C3C3C" d="M164.3,144.7L164.3,144.7l1.1,1.3l0.1-0.1c0.8-0.8,1.5-1.1,2.2-1.1c1.2,0,1.9,0.6,1.9,1.7
				c0,1.6-2,3.4-5.2,6.2l0,0v1.3h7.9v-1.9h-3.1c-0.5,0-1,0-1.5,0.1c2.2-2,4.1-3.9,4.1-5.8c0-2-1.5-3.4-3.7-3.4
				C166.6,143,165.5,143.5,164.3,144.7z"/>
			<path fill="#3C3C3C" d="M184.3,152.5L184.3,152.5l0.2,1.3h1.7v-15.3h-2.1v3.9l0.1,1.9c-0.9-0.8-1.8-1.3-3.1-1.3
				c-2.4,0-4.7,2.1-4.7,5.5c0,3.5,1.8,5.5,4.6,5.5C182.2,154,183.4,153.3,184.3,152.5z M178.6,148.5c0-2.3,1.4-3.7,3-3.7
				c0.8,0,1.7,0.3,2.5,1.1v5c-0.8,0.9-1.7,1.4-2.7,1.4C179.7,152.3,178.6,150.9,178.6,148.5z"/>
			<path fill="#3C3C3C" d="M200.9,148.6c0-3.5-2.5-5.5-5.3-5.5c-2.8,0-5.3,2-5.3,5.5c0,3.5,2.5,5.5,5.3,5.5
				C198.4,154.1,200.9,152.1,200.9,148.6z M192.6,148.6c0-2.3,1.2-3.8,3.1-3.8s3.1,1.5,3.1,3.8c0,2.3-1.2,3.8-3.1,3.8
				S192.6,150.8,192.6,148.6z"/>
			<path fill="#3C3C3C" d="M213.9,153.4l-0.4-1.6c-0.7,0.3-1.5,0.5-2.4,0.5c-1.9,0-2.5-0.9-2.5-2.7V145h5v-1.7h-5v-2.9h-1.8
				l-0.3,2.9l-3,0.1v1.6h2.9v4.6c0,2.7,1.1,4.4,4.2,4.4C211.8,154,213,153.8,213.9,153.4z"/>
			<path fill="#3C3C3C" d="M228,150.8c0-1.7-1.5-2.5-4.1-3.1c-1.8-0.5-3.1-0.9-3.1-1.7c0-0.8,0.6-1.3,2.4-1.3c1.3,0,2.4,0.5,3.3,1.1
				l1-1.3c-1.1-0.7-2.7-1.4-4.3-1.4c-2.9,0-4.5,1.3-4.5,3.1c0,1.5,1.9,2.5,3.9,3c2.3,0.6,3.3,1.1,3.3,1.9c0,0.8-0.8,1.4-2.6,1.4
				c-1.7,0-3-0.5-4.2-1.4l-1,1.4c1.3,0.9,3.1,1.6,5.2,1.6C226.3,154,228,152.6,228,150.8z"/>
			<path fill="#3C3C3C" d="M241,153.4l-0.4-1.6c-0.7,0.3-1.5,0.5-2.4,0.5c-1.9,0-2.5-0.9-2.5-2.7V145h5v-1.7h-5v-2.9h-1.8l-0.3,2.9
				l-3,0.1v1.6h2.9v4.6c0,2.7,1.1,4.4,4.2,4.4C238.9,154,240.1,153.8,241,153.4z"/>
			<path fill="#3C3C3C" d="M247.4,153.8h2.5l1.1-4.8c0.2-1.3,0.4-2.2,0.5-3.1h0.1c0.2,1.1,0.3,2,0.5,3.1l1.1,4.9h2.5l2.1-10.5h-2
				l-1.1,5.8c-0.2,1-0.3,2-0.5,3h-0.1c-0.2-1-0.4-2-0.6-3l-1.2-4.9h-1.7l-1.1,4.9c-0.2,1-0.4,2-0.6,3h-0.1c-0.2-1-0.3-2-0.5-3
				l-1.1-5.8h-2.1L247.4,153.8z"/>
			<path fill="#3C3C3C" d="M266,141.2c0.9,0,1.6-0.6,1.6-1.5c0-0.9-0.7-1.5-1.6-1.5c-0.9,0-1.6,0.6-1.6,1.5
				C264.4,140.6,265.1,141.2,266,141.2z"/>
			<polygon fill="#3C3C3C" points="260.4,145 265.1,145 265.1,153.8 267.2,153.8 267.2,143.2 260.4,143.2 			"/>
			<path fill="#3C3C3C" d="M281.8,152.4l-0.9-1.4c-0.8,0.7-1.9,1.2-3.1,1.2c-2.2,0-3.8-1.5-3.8-3.8c0-2.3,1.6-3.8,3.8-3.8
				c1,0,1.9,0.4,2.7,1.1l1-1.4c-0.9-0.8-2.2-1.5-3.9-1.5c-3.2,0-5.9,2-5.9,5.5c0,3.5,2.5,5.5,5.8,5.5
				C279.1,154,280.6,153.5,281.8,152.4z"/>
			<path fill="#3C3C3C" d="M295.7,152.8l-0.8-1.4c-0.9,0.6-1.9,0.9-3.1,0.9c-2.1,0-3.7-1.2-3.8-3.3h7.9c0-0.3,0.1-0.7,0.1-1.1
				c0-2.9-1.8-5-4.9-5c-2.7,0-5.4,2.1-5.4,5.5c0,3.5,2.5,5.5,5.7,5.5C293.2,154,294.6,153.5,295.7,152.8z M291.3,144.7
				c1.8,0,2.8,1.1,2.8,2.9h-6.1C288.4,145.7,289.8,144.7,291.3,144.7z"/>
			<path id="open_i_1pt_2_" display="none" fill="none" stroke="#FFFFFF" stroke-miterlimit="10" d="M259,141c0.8,0,1.3-0.5,1.3-1.3
				c0-0.8-0.6-1.3-1.3-1.3c-0.8,0-1.3,0.5-1.3,1.3C257.7,140.5,258.2,141,259,141z"/>
		</g>
		<g>
			<defs>
				<path id="SVGID_3_" d="M149.3,157.8l2.9-10.7c2.4,0.4,4.7-1.1,5.3-3.4c0.7-2.5-0.8-5.1-3.4-5.8c-2.4-0.6-4.8,0.7-5.6,2.9
					l-10.7-2.9c0.3-2.1-1-4.1-3.1-4.7c-2.3-0.6-4.6,0.7-5.2,3c-0.6,2.1,0.6,4.2,2.5,5l-3,11.2c-2.1-0.3-4.1,1-4.7,3.1
					c-0.6,2.3,0.7,4.6,3,5.2c2.1,0.6,4.2-0.6,5-2.5l11.2,3c-0.3,2.1,1,4.1,3.1,4.7c2.3,0.6,4.6-0.7,5.2-3
					C152.4,160.7,151.3,158.6,149.3,157.8z M148.4,157.6c-1.9-0.3-3.8,0.8-4.5,2.6l-11.2-3c0.3-1.9-0.8-3.8-2.6-4.5l3-11.2
					c1.9,0.3,3.8-0.8,4.5-2.6l10.7,2.9c-0.3,2.2,0.9,4.3,3,5.1L148.4,157.6z M151.5,145.9c-1.5-0.6-2.5-2.3-2.3-3.9
					c0-0.2,0-0.3,0.1-0.5c0-0.2,0.1-0.3,0.2-0.5c0.7-1.7,2.6-2.7,4.4-2.2c2,0.5,3.2,2.6,2.7,4.6c-0.5,1.8-2.3,3-4.1,2.7
					c-0.2,0-0.3,0-0.5-0.1C151.8,146,151.6,145.9,151.5,145.9z"/>
			</defs>
			<clipPath id="SVGID_4_">
				<use xlink:href="#SVGID_3_"  overflow="visible"/>
			</clipPath>
			<g clip-path="url(#SVGID_4_)">
				
					<rect x="123.9" y="132.1" transform="matrix(-0.9659 -0.2588 0.2588 -0.9659 238.1642 329.2529)" fill="#3C3C3C" width="33.6" height="33.6"/>
			</g>
		</g>
		<g>
			<path fill="#3C3C3C" d="M164.4,164.6c0-0.4,0.1-0.7,0.2-1c0.1-0.3,0.3-0.6,0.6-0.8s0.5-0.4,0.8-0.5c0.3-0.1,0.7-0.2,1-0.2
				c0.4,0,0.7,0.1,1,0.2c0.3,0.1,0.5,0.3,0.7,0.5l-0.5,0.7c-0.2-0.1-0.4-0.3-0.6-0.3c-0.2-0.1-0.4-0.1-0.6-0.1
				c-0.5,0-0.8,0.1-1.1,0.4c-0.3,0.3-0.4,0.7-0.4,1.1c0,0.2,0,0.4,0.1,0.6c0.1,0.2,0.2,0.4,0.3,0.5c0.1,0.1,0.3,0.2,0.5,0.3
				c0.2,0.1,0.4,0.1,0.6,0.1c0.3,0,0.5-0.1,0.7-0.2c0.2-0.1,0.4-0.2,0.6-0.4l0.5,0.7c-0.3,0.2-0.6,0.4-0.9,0.5
				c-0.3,0.1-0.7,0.2-1,0.2c-0.4,0-0.7-0.1-1-0.2c-0.3-0.1-0.6-0.3-0.8-0.5c-0.2-0.2-0.4-0.5-0.5-0.8S164.4,165,164.4,164.6z"/>
			<path fill="#3C3C3C" d="M171.3,164.6c0-0.4,0.1-0.7,0.2-1c0.1-0.3,0.3-0.6,0.5-0.8s0.5-0.4,0.8-0.5c0.3-0.1,0.6-0.2,0.9-0.2
				c0.3,0,0.6,0.1,0.9,0.2c0.3,0.1,0.5,0.3,0.8,0.5s0.4,0.5,0.5,0.8c0.1,0.3,0.2,0.6,0.2,1c0,0.4-0.1,0.7-0.2,1
				c-0.1,0.3-0.3,0.6-0.5,0.8s-0.5,0.4-0.8,0.5c-0.3,0.1-0.6,0.2-0.9,0.2c-0.3,0-0.6-0.1-0.9-0.2c-0.3-0.1-0.5-0.3-0.8-0.5
				s-0.4-0.5-0.5-0.8S171.3,165,171.3,164.6z M172.4,164.6c0,0.5,0.1,0.8,0.3,1.1c0.2,0.3,0.5,0.4,0.9,0.4s0.7-0.1,0.9-0.4
				c0.2-0.3,0.3-0.7,0.3-1.1c0-0.5-0.1-0.9-0.3-1.1c-0.2-0.3-0.5-0.4-0.9-0.4s-0.7,0.1-0.9,0.4C172.5,163.7,172.4,164.1,172.4,164.6
				z"/>
			<path fill="#3C3C3C" d="M178.6,162.3h0.9l0.1,0.7h0c0.2-0.2,0.5-0.4,0.7-0.6c0.3-0.2,0.6-0.2,0.9-0.2c0.5,0,0.9,0.2,1.2,0.5
				s0.4,0.8,0.4,1.4v2.9h-1.1v-2.7c0-0.4-0.1-0.7-0.2-0.8c-0.1-0.2-0.4-0.3-0.7-0.3c-0.2,0-0.4,0.1-0.6,0.2
				c-0.2,0.1-0.4,0.3-0.6,0.5v3.2h-1.1V162.3z"/>
			<path fill="#3C3C3C" d="M185.7,162.3h0.9l0.1,0.7h0c0.2-0.2,0.5-0.4,0.7-0.6c0.3-0.2,0.6-0.2,0.9-0.2c0.5,0,0.9,0.2,1.2,0.5
				s0.4,0.8,0.4,1.4v2.9h-1.1v-2.7c0-0.4-0.1-0.7-0.2-0.8c-0.1-0.2-0.4-0.3-0.7-0.3c-0.2,0-0.4,0.1-0.6,0.2
				c-0.2,0.1-0.4,0.3-0.6,0.5v3.2h-1.1V162.3z"/>
			<path fill="#3C3C3C" d="M192.6,164.6c0-0.4,0.1-0.7,0.2-1c0.1-0.3,0.3-0.6,0.5-0.8c0.2-0.2,0.5-0.4,0.8-0.5
				c0.3-0.1,0.6-0.2,0.9-0.2c0.3,0,0.7,0.1,0.9,0.2c0.3,0.1,0.5,0.3,0.7,0.5s0.3,0.4,0.4,0.7c0.1,0.3,0.1,0.6,0.1,0.9
				c0,0.1,0,0.2,0,0.3c0,0.1,0,0.2,0,0.2h-3.4c0,0.4,0.2,0.7,0.5,1c0.3,0.2,0.6,0.3,1.1,0.3c0.2,0,0.5,0,0.7-0.1s0.4-0.2,0.6-0.3
				l0.4,0.7c-0.3,0.2-0.5,0.3-0.8,0.4c-0.3,0.1-0.6,0.2-1,0.2c-0.4,0-0.7-0.1-1-0.2c-0.3-0.1-0.6-0.3-0.8-0.5s-0.4-0.5-0.5-0.8
				C192.6,165.3,192.6,165,192.6,164.6z M196.1,164.1c0-0.4-0.1-0.6-0.3-0.8s-0.5-0.3-0.8-0.3c-0.3,0-0.6,0.1-0.8,0.3
				s-0.4,0.5-0.5,0.9H196.1z"/>
			<path fill="#3C3C3C" d="M199.7,164.6c0-0.4,0.1-0.7,0.2-1c0.1-0.3,0.3-0.6,0.6-0.8s0.5-0.4,0.8-0.5c0.3-0.1,0.7-0.2,1-0.2
				c0.4,0,0.7,0.1,1,0.2c0.3,0.1,0.5,0.3,0.7,0.5l-0.5,0.7c-0.2-0.1-0.4-0.3-0.6-0.3c-0.2-0.1-0.4-0.1-0.6-0.1
				c-0.5,0-0.8,0.1-1.1,0.4c-0.3,0.3-0.4,0.7-0.4,1.1c0,0.2,0,0.4,0.1,0.6c0.1,0.2,0.2,0.4,0.3,0.5c0.1,0.1,0.3,0.2,0.5,0.3
				c0.2,0.1,0.4,0.1,0.6,0.1c0.3,0,0.5-0.1,0.7-0.2c0.2-0.1,0.4-0.2,0.6-0.4l0.5,0.7c-0.3,0.2-0.6,0.4-0.9,0.5
				c-0.3,0.1-0.7,0.2-1,0.2c-0.4,0-0.7-0.1-1-0.2c-0.3-0.1-0.6-0.3-0.8-0.5c-0.2-0.2-0.4-0.5-0.5-0.8S199.7,165,199.7,164.6z"/>
			<path fill="#3C3C3C" d="M207.9,163.1h-1.2v-0.8l1.3,0l0.1-1.3h0.9v1.3h2.1v0.9H209v1.9c0,0.4,0.1,0.7,0.2,0.9
				c0.2,0.2,0.4,0.3,0.8,0.3c0.2,0,0.4,0,0.6-0.1c0.2,0,0.3-0.1,0.5-0.1l0.2,0.8c-0.2,0.1-0.4,0.1-0.7,0.2c-0.3,0.1-0.5,0.1-0.8,0.1
				c-0.4,0-0.7,0-0.9-0.1s-0.4-0.2-0.6-0.4c-0.1-0.2-0.3-0.4-0.3-0.6c-0.1-0.2-0.1-0.5-0.1-0.8V163.1z"/>
			<path fill="#3C3C3C" d="M214,162.3h3.1v4.7H216v-3.8h-2V162.3z M216.5,161.4c-0.2,0-0.4-0.1-0.6-0.2c-0.1-0.1-0.2-0.3-0.2-0.5
				s0.1-0.4,0.2-0.5c0.1-0.1,0.3-0.2,0.6-0.2c0.2,0,0.4,0.1,0.6,0.2c0.1,0.1,0.2,0.3,0.2,0.5s-0.1,0.4-0.2,0.5
				C216.9,161.4,216.7,161.4,216.5,161.4z"/>
			<path fill="#3C3C3C" d="M221,162.3h0.9l0.1,0.7h0c0.2-0.2,0.5-0.4,0.7-0.6s0.6-0.2,0.9-0.2c0.5,0,0.9,0.2,1.2,0.5
				c0.3,0.3,0.4,0.8,0.4,1.4v2.9h-1.1v-2.7c0-0.4-0.1-0.7-0.2-0.8c-0.1-0.2-0.4-0.3-0.7-0.3c-0.2,0-0.4,0.1-0.6,0.2
				c-0.2,0.1-0.4,0.3-0.6,0.5v3.2H221V162.3z"/>
			<path fill="#3C3C3C" d="M227.9,167.7c0-0.2,0.1-0.4,0.2-0.5s0.3-0.3,0.6-0.4v0c-0.1-0.1-0.2-0.2-0.3-0.3
				c-0.1-0.1-0.1-0.3-0.1-0.5c0-0.2,0.1-0.3,0.2-0.5c0.1-0.2,0.2-0.3,0.4-0.4v0c-0.2-0.1-0.3-0.3-0.4-0.5c-0.1-0.2-0.2-0.4-0.2-0.7
				c0-0.3,0.1-0.5,0.2-0.7s0.2-0.4,0.4-0.5c0.2-0.1,0.4-0.3,0.6-0.3c0.2-0.1,0.5-0.1,0.7-0.1c0.3,0,0.5,0,0.7,0.1h1.9v0.8h-1.1
				c0.1,0.1,0.2,0.2,0.2,0.3c0.1,0.1,0.1,0.3,0.1,0.5c0,0.3,0,0.5-0.1,0.7c-0.1,0.2-0.2,0.4-0.4,0.5s-0.4,0.2-0.6,0.3
				c-0.2,0.1-0.5,0.1-0.7,0.1c-0.2,0-0.5,0-0.7-0.1c-0.2,0.1-0.3,0.3-0.3,0.4c0,0.3,0.3,0.4,0.9,0.4h1c0.6,0,1.1,0.1,1.4,0.3
				c0.3,0.2,0.5,0.5,0.5,0.9c0,0.2-0.1,0.4-0.2,0.6c-0.1,0.2-0.3,0.4-0.5,0.5c-0.2,0.1-0.5,0.3-0.8,0.4c-0.3,0.1-0.7,0.1-1.1,0.1
				c-0.3,0-0.6,0-0.9-0.1s-0.5-0.1-0.7-0.2c-0.2-0.1-0.3-0.2-0.4-0.4S227.9,167.9,227.9,167.7z M228.8,167.6c0,0.2,0.1,0.4,0.3,0.5
				c0.2,0.1,0.6,0.2,1,0.2c0.2,0,0.4,0,0.6-0.1s0.3-0.1,0.5-0.2c0.1-0.1,0.2-0.2,0.3-0.2c0.1-0.1,0.1-0.2,0.1-0.3
				c0-0.2-0.1-0.3-0.2-0.4c-0.2-0.1-0.4-0.1-0.7-0.1H230c-0.2,0-0.3,0-0.4,0c-0.1,0-0.2,0-0.3-0.1c-0.2,0.1-0.3,0.2-0.4,0.3
				C228.9,167.4,228.8,167.5,228.8,167.6z M230.1,164.8c0.2,0,0.4-0.1,0.6-0.2c0.2-0.2,0.3-0.4,0.3-0.7c0-0.3-0.1-0.5-0.3-0.7
				c-0.2-0.2-0.4-0.3-0.6-0.3c-0.2,0-0.4,0.1-0.6,0.3c-0.2,0.2-0.3,0.4-0.3,0.7c0,0.3,0.1,0.5,0.3,0.7
				C229.6,164.7,229.8,164.8,230.1,164.8z"/>
			<path fill="#3C3C3C" d="M243.3,163.1H242v-0.8l1.3,0l0.1-1.3h0.9v1.3h2.1v0.9h-2.1v1.9c0,0.4,0.1,0.7,0.2,0.9
				c0.2,0.2,0.4,0.3,0.8,0.3c0.2,0,0.4,0,0.6-0.1c0.2,0,0.3-0.1,0.5-0.1l0.2,0.8c-0.2,0.1-0.4,0.1-0.7,0.2s-0.5,0.1-0.8,0.1
				c-0.4,0-0.7,0-0.9-0.1c-0.2-0.1-0.4-0.2-0.6-0.4c-0.1-0.2-0.3-0.4-0.3-0.6c-0.1-0.2-0.1-0.5-0.1-0.8V163.1z"/>
			<path fill="#3C3C3C" d="M249.3,160.2h1.1v1.7l-0.1,1c0.2-0.2,0.5-0.4,0.7-0.6c0.3-0.2,0.6-0.2,0.9-0.2c0.5,0,0.9,0.2,1.2,0.5
				s0.4,0.8,0.4,1.4v2.9h-1.1v-2.7c0-0.4-0.1-0.7-0.2-0.8c-0.1-0.2-0.4-0.3-0.7-0.3c-0.2,0-0.4,0.1-0.6,0.2
				c-0.2,0.1-0.4,0.3-0.6,0.5v3.2h-1.1V160.2z"/>
			<path fill="#3C3C3C" d="M256.2,164.6c0-0.4,0.1-0.7,0.2-1c0.1-0.3,0.3-0.6,0.5-0.8c0.2-0.2,0.5-0.4,0.8-0.5
				c0.3-0.1,0.6-0.2,0.9-0.2c0.3,0,0.7,0.1,0.9,0.2c0.3,0.1,0.5,0.3,0.7,0.5c0.2,0.2,0.3,0.4,0.4,0.7c0.1,0.3,0.1,0.6,0.1,0.9
				c0,0.1,0,0.2,0,0.3c0,0.1,0,0.2,0,0.2h-3.4c0,0.4,0.2,0.7,0.5,1c0.3,0.2,0.6,0.3,1.1,0.3c0.2,0,0.5,0,0.7-0.1s0.4-0.2,0.6-0.3
				l0.4,0.7c-0.3,0.2-0.5,0.3-0.8,0.4s-0.6,0.2-1,0.2c-0.4,0-0.7-0.1-1-0.2c-0.3-0.1-0.6-0.3-0.8-0.5c-0.2-0.2-0.4-0.5-0.5-0.8
				C256.3,165.3,256.2,165,256.2,164.6z M259.7,164.1c0-0.4-0.1-0.6-0.3-0.8c-0.2-0.2-0.5-0.3-0.8-0.3c-0.3,0-0.6,0.1-0.8,0.3
				s-0.4,0.5-0.5,0.9H259.7z"/>
			<path fill="#3C3C3C" d="M270.2,164.6c0-0.4,0.1-0.7,0.2-1c0.1-0.3,0.3-0.6,0.5-0.8c0.2-0.2,0.4-0.4,0.7-0.5s0.5-0.2,0.8-0.2
				c0.3,0,0.5,0,0.7,0.1c0.2,0.1,0.4,0.2,0.6,0.4l0-0.8v-1.7h1.1v6.7h-0.9l-0.1-0.5h0c-0.2,0.2-0.4,0.3-0.6,0.5
				c-0.2,0.1-0.5,0.2-0.8,0.2c-0.3,0-0.6-0.1-0.8-0.2c-0.2-0.1-0.5-0.3-0.6-0.5c-0.2-0.2-0.3-0.5-0.4-0.8
				C270.3,165.3,270.2,165,270.2,164.6z M271.4,164.6c0,0.5,0.1,0.9,0.3,1.2s0.5,0.4,0.8,0.4c0.4,0,0.7-0.2,1.1-0.6v-2.1
				c-0.2-0.2-0.3-0.3-0.5-0.3c-0.2-0.1-0.3-0.1-0.5-0.1c-0.2,0-0.3,0-0.5,0.1s-0.3,0.2-0.4,0.3c-0.1,0.1-0.2,0.3-0.3,0.5
				C271.4,164.1,271.4,164.3,271.4,164.6z"/>
			<path fill="#3C3C3C" d="M277.3,164.6c0-0.4,0.1-0.7,0.2-1c0.1-0.3,0.3-0.6,0.5-0.8c0.2-0.2,0.5-0.4,0.8-0.5
				c0.3-0.1,0.6-0.2,0.9-0.2c0.3,0,0.6,0.1,0.9,0.2c0.3,0.1,0.5,0.3,0.8,0.5c0.2,0.2,0.4,0.5,0.5,0.8c0.1,0.3,0.2,0.6,0.2,1
				c0,0.4-0.1,0.7-0.2,1s-0.3,0.6-0.5,0.8c-0.2,0.2-0.5,0.4-0.8,0.5c-0.3,0.1-0.6,0.2-0.9,0.2c-0.3,0-0.6-0.1-0.9-0.2
				c-0.3-0.1-0.5-0.3-0.8-0.5c-0.2-0.2-0.4-0.5-0.5-0.8S277.3,165,277.3,164.6z M278.4,164.6c0,0.5,0.1,0.8,0.3,1.1
				c0.2,0.3,0.5,0.4,0.9,0.4c0.4,0,0.7-0.1,0.9-0.4c0.2-0.3,0.3-0.7,0.3-1.1c0-0.5-0.1-0.9-0.3-1.1c-0.2-0.3-0.5-0.4-0.9-0.4
				c-0.4,0-0.7,0.1-0.9,0.4C278.5,163.7,278.4,164.1,278.4,164.6z"/>
			<path fill="#3C3C3C" d="M285.7,163.1h-1.2v-0.8l1.3,0l0.1-1.3h0.9v1.3h2.1v0.9h-2.1v1.9c0,0.4,0.1,0.7,0.2,0.9
				c0.2,0.2,0.4,0.3,0.8,0.3c0.2,0,0.4,0,0.6-0.1c0.2,0,0.3-0.1,0.5-0.1l0.2,0.8c-0.2,0.1-0.4,0.1-0.7,0.2c-0.3,0.1-0.5,0.1-0.8,0.1
				c-0.4,0-0.7,0-0.9-0.1c-0.2-0.1-0.4-0.2-0.6-0.4c-0.1-0.2-0.3-0.4-0.3-0.6c-0.1-0.2-0.1-0.5-0.1-0.8V163.1z"/>
			<path fill="#3C3C3C" d="M292,165.6c0.3,0.2,0.5,0.3,0.8,0.4c0.3,0.1,0.6,0.2,1,0.2c0.4,0,0.6-0.1,0.8-0.2s0.3-0.2,0.3-0.4
				c0-0.2-0.1-0.3-0.3-0.4c-0.2-0.1-0.6-0.2-1-0.4c-0.2-0.1-0.4-0.1-0.6-0.2c-0.2-0.1-0.4-0.2-0.6-0.3c-0.2-0.1-0.3-0.2-0.4-0.4
				c-0.1-0.1-0.1-0.3-0.1-0.5c0-0.4,0.2-0.7,0.5-1c0.4-0.3,0.9-0.4,1.5-0.4c0.4,0,0.7,0.1,1.1,0.2c0.3,0.1,0.6,0.3,0.9,0.4l-0.5,0.7
				c-0.2-0.1-0.4-0.3-0.7-0.3c-0.2-0.1-0.5-0.1-0.8-0.1c-0.4,0-0.6,0-0.8,0.1c-0.1,0.1-0.2,0.2-0.2,0.4c0,0.1,0,0.2,0.1,0.2
				s0.2,0.1,0.3,0.2s0.3,0.1,0.4,0.2c0.2,0.1,0.3,0.1,0.5,0.1c0.3,0.1,0.5,0.1,0.7,0.2c0.2,0.1,0.4,0.2,0.6,0.3
				c0.2,0.1,0.3,0.2,0.4,0.4c0.1,0.1,0.1,0.3,0.1,0.5c0,0.2,0,0.4-0.1,0.6s-0.2,0.3-0.4,0.5s-0.4,0.2-0.7,0.3
				c-0.3,0.1-0.6,0.1-0.9,0.1c-0.4,0-0.9-0.1-1.3-0.2c-0.4-0.1-0.7-0.3-1-0.5L292,165.6z"/>
		</g>
	</g>
</g>
</svg>
