<?xml version="1.0" encoding="iso-8859-1"?>
<!-- Generator: Adobe Illustrator 16.0.4, SVG Export Plug-In . SVG Version: 6.00 Build 0)  -->
<!DOCTYPE svg PUBLIC "-//W3C//DTD SVG 1.1//EN" "http://www.w3.org/Graphics/SVG/1.1/DTD/svg11.dtd">
<svg version="1.1" id="Layer_1" xmlns="http://www.w3.org/2000/svg" xmlns:xlink="http://www.w3.org/1999/xlink" x="0px" y="0px"
	 width="282px" height="68px" viewBox="0 0 282 68" style="enable-background:new 0 0 282 68;" xml:space="preserve">
<path style="fill:#2F3B4D;" d="M38.092,39.687c0,4.516-0.466,8.148-3.897,11.393c-3.067,2.902-6.813,3.893-10.568,4.246
	c-3.272,0.285-7.548-0.234-10.303-2.182c-3.804-2.748-4.541-6.852-4.541-12.043V12.358l11.145,0.926v26.047
	c0,1.393-0.056,3.279,0.669,4.531c0.843,1.283,2.511,1.77,3.91,1.709c1.254-0.059,2.807-0.553,3.755-1.545
	c1.403-1.379,1.257-3.479,1.257-5.365V14.093l8.584,0.723L38.092,39.687L38.092,39.687z"/>
<polygon style="fill:#2F3B4D;" points="51.769,52.153 41.465,53.015 41.465,27.005 51.769,27.331 "/>
<polygon style="fill:#2F3B4D;" points="51.769,24.517 41.465,24.069 41.465,15.093 51.769,15.954 "/>
<polygon style="fill:#2F3B4D;" points="72.332,50.618 61.924,51.481 61.924,25.144 54.422,24.829 54.422,16.185 79.678,18.308 
	79.678,25.927 72.332,25.603 "/>
<polygon style="fill:#2F3B4D;" points="0,0.825 108.699,0.825 108.699,66.757 0,66.757 86.975,55.763 86.975,11.819 "/>
<path style="opacity:0.5;fill:#2F3B4D;" d="M222.326,47.78c3.539,14.336,15.744,20.105,29.494,20.105
	c13.566,0,29.219-6.34,29.219-22.189c0-7.201-3.311-13.379-9.719-16.842c-5.734-2.982-12.33-4.029-18.527-5.273
	c-2.498-0.574-7.262-1.238-7.262-4.723c0-3.453,3.822-4.227,6.479-4.227c5.066,0,8.703,1.73,10.615,6.621l16.643-5.094
	c-4.021-11.445-15-16.16-26.348-16.16c-6.492,0-13.488,1.244-18.82,4.988c-5.225,3.748-8.393,10.111-8.393,16.549
	c0,15.676,14.611,19.033,26.918,21.434c2.961,0.582,8.043,1.354,8.043,5.385c0,3.682-5.184,4.031-7.727,4.031
	c-5.838,0-10.219-2.111-11.945-7.971L222.326,47.78z"/>
<g>
	<path style="opacity:0.5;fill:#2F3B4D;" d="M200.531,0.956h-21.174l-20.336,65.951h16.328l4.008-12.982h17.492l3.719,12.982h20.535
		L200.531,0.956z M182.689,39.521l5.35-19.137l5.361,19.137H182.689z"/>
</g>
<g>
	<path style="opacity:0.5;fill:#2F3B4D;" d="M154.639,4.405c-5.641-3.252-12.803-3.449-19.182-3.449h-26.758v65.951h20.36V42.97
		h10.19c6.311,0,12.779-0.955,17.857-5.105c4.861-3.961,7.252-9.916,7.252-16.16C164.371,14.62,160.746,8.077,154.639,4.405z
		 M134.297,28.845h-5.227V16.062h5.799c4.584,0,9.549,0.486,9.549,6.352C144.408,28.558,138.877,28.845,134.297,28.845z"/>
</g>
</svg>
