<svg xmlns="http://www.w3.org/2000/svg" width="138" height="33" viewBox="0 0 138 33"><path d="M18.517 19.367c0 2.195-.227 3.962-1.895 5.538-1.491 1.411-3.312 1.892-5.137 2.063-1.591.14-3.67-.114-5.008-1.059-1.85-1.336-2.208-3.331-2.208-5.853v-13.974l5.417.45v12.662c0 .676-.027 1.594.325 2.202.41.625 1.221.86 1.901.83.61-.028 1.365-.268 1.825-.75.683-.669.611-1.692.611-2.609v-11.942l4.173.352-.004 12.09zM25.165 25.427l-5.009.419v-12.642l5.009.156zM25.165 11.993l-5.009-.217v-4.364l5.009.417zM35.161 24.682l-5.06.419v-12.804l-3.646-.153v-4.201l12.277 1.031v3.705l-3.571-.158zM0 .476h52.839v32.049h-52.839l42.279-5.343v-21.361z" fill="#fff"/><path d="M108.319 23.228c1.72 6.969 7.654 9.772 14.339 9.772 6.595 0 14.204-3.082 14.204-10.787 0-3.501-1.609-6.502-4.725-8.187-2.789-1.45-5.994-1.959-9.007-2.563-1.214-.279-3.531-.603-3.531-2.296 0-1.678 1.858-2.054 3.151-2.054 2.463 0 4.228.84 5.159 3.218l8.091-2.477c-1.954-5.563-7.292-7.854-12.806-7.854-3.157 0-6.56.603-9.151 2.425-2.541 1.82-4.078 4.913-4.078 8.043 0 7.622 7.1 9.252 13.085 10.419 1.439.284 3.908.659 3.908 2.619 0 1.789-2.52 1.96-3.755 1.96-2.837 0-4.968-1.026-5.805-3.875l-9.079 1.637zM97.726.465h-10.293l-9.887 32.06h7.938l1.949-6.311h8.504l1.807 6.311h9.982l-10-32.06zm-8.674 18.747l2.6-9.303 2.606 9.303h-5.206zM75.416 2.141c-2.742-1.579-6.223-1.675-9.323-1.675h-13.008v32.06h9.897v-11.639h4.954c3.066 0 6.21-.463 8.679-2.48 2.364-1.928 3.528-4.82 3.528-7.857.003-3.442-1.759-6.623-4.727-8.409zm-9.888 11.88h-2.541v-6.212h2.819c2.228 0 4.642.236 4.642 3.086-.005 2.988-2.694 3.126-4.92 3.126z" opacity=".5" fill="#fff"/></svg>