<?xml version="1.0" encoding="UTF-8"?>
<svg xmlns="http://www.w3.org/2000/svg" xmlns:xlink="http://www.w3.org/1999/xlink" width="418px" height="100px" viewBox="0 0 418 100" version="1.1">
  <!-- Generator: Sketch 59.1 (86144) - https://sketch.com -->
  <title>UiTPAS logo</title>
  <desc>Created with Sketch.</desc>
  <g id="UiTPAS-logo" stroke="none" stroke-width="1" fill="none" fill-rule="evenodd">
    <g transform="translate(0.000000, 0.000000)">
      <path d="M56.3333333,59.011387 C56.3333333,65.6184121 55.6454375,70.9386417 50.6058743,75.6874095 C46.1050127,79.9291055 40.6028471,81.4130955 35.0996802,81.8889783 C30.2974261,82.3125443 24.0302642,81.5801072 19.9799894,78.7197795 C14.4067312,74.674272 13.3333333,68.6990746 13.3333333,61.0668388 L13.3333333,19 L29.6866307,20.3703012 L29.6866307,58.4932482 C29.6866307,60.5366268 29.6035224,63.3013756 30.6709125,65.1364926 C31.8985112,67.0309693 34.3416931,67.7100833 36.3983715,67.6205408 C38.2367657,67.5309984 40.5257467,66.8287442 41.9005371,65.3809737 C43.9642247,63.3255218 43.7339248,60.2569325 43.7339248,57.5102935 L43.7339248,21.5494444 L56.3333333,22.6038318 L56.3333333,59.011387 Z" id="Fill-1" fill="#129773"></path>
      <path d="M61.3333333,40.2921236 L76.3333333,40.7647059 L76.3333333,76.7547358 L61.3333333,78 L61.3333333,40.2921236 Z M61.3333333,23 L76.3333333,24.2512463 L76.3333333,36.6729811 L61.3333333,36.0119641 L61.3333333,23 Z" id="Fill-3" fill="#129773"></path>
      <polygon id="Fill-5" fill="#129773" points="106.577298 74.7112374 91.320412 76 91.320412 37.2126003 80.3333333 36.7276692 80.3333333 24 117.333333 27.1231991 117.333333 38.3515303 106.577298 37.8787478"></polygon>
      <polygon id="Fill-7" fill="#129773" points="0.333333333 2 161.333333 2 161.333333 99 0.333333333 99 129.135528 82.8320023 129.135528 18.1679977"></polygon>
      <path d="M201.781426,2.00039029 C211.17053,2.01345649 221.583628,2.38164513 229.810143,7.09218055 C238.926714,12.4618805 244.333333,22.0782253 244.333333,32.5411041 C244.333333,41.7321855 240.772141,50.4970052 233.514064,56.2989564 C225.969523,62.3784271 216.286056,63.7919788 206.889052,63.7919788 L206.889052,63.7919788 L191.656236,63.7919788 L191.656236,99 L161.333333,99 L161.333333,2 Z M200.592016,24.2018832 L191.656236,24.2015478 L191.656236,43.0099724 L199.972005,43.0091577 C206.707022,42.985139 214.577327,42.3707853 214.577327,33.5343837 C214.577327,24.9053289 207.17451,24.2015478 200.338589,24.2015478 Z" id="Combined-Shape" fill="#72C1AB"></path>
      <path d="M297.903494,2 L328.333333,99 L297.903494,99 L292.385513,79.9140561 L266.484376,79.9140561 L260.534708,99 L236.333333,99 L266.484376,2 L297.903494,2 Z M279.360998,30.5595361 L271.433771,58.6997983 L287.288225,58.6997983 L279.360998,30.5595361 Z" id="Combined-Shape" fill="#72C1AB"></path>
      <path d="M330.333333,70.395 C335.56348,91.504 353.675747,100 374.046055,100 C394.134732,100 417.333333,90.651 417.333333,67.279 C417.333333,56.656 412.380823,47.591 402.903242,42.497 C394.41836,38.101 384.655153,36.542 375.460202,34.706 C371.781023,33.853 364.710288,32.863 364.710288,27.762 C364.710288,22.661 370.366876,21.529 374.329683,21.529 C381.826859,21.529 387.199819,24.077 390.027114,31.305 L414.647852,23.798 C408.700645,6.938 392.435957,0 375.603014,0 C365.981622,0 355.65715,1.842 347.73553,7.364 C339.954726,12.892 335.285844,22.24 335.285844,31.732 C335.285844,54.819 356.929483,59.772 375.176573,63.315 C379.560828,64.169 387.058004,65.3 387.058004,71.248 C387.058004,76.633 379.419014,77.196 375.603014,77.196 C366.969328,77.196 360.467847,74.08 357.917189,65.442 L330.333333,70.395 Z" id="Path" fill="#72C1AB"></path>
    </g>
  </g>
</svg>
