<?xml version="1.0" encoding="utf-8"?>
<!-- Generator: Adobe Illustrator 19.2.1, SVG Export Plug-In . SVG Version: 6.00 Build 0)  -->
<svg version="1.1" id="Layer_1" xmlns="http://www.w3.org/2000/svg" xmlns:xlink="http://www.w3.org/1999/xlink" x="0px" y="0px"
	 viewBox="0 0 210 112" style="enable-background:new 0 0 210 112;" xml:space="preserve">
<style type="text/css">
	.st0{fill:#8A8A8D;}
</style>
<g>
	<g>
		<path class="st0" d="M136.29,38.8l26.87,26.87l-3.53,3.54l-26.87-26.87L136.29,38.8z"/>
	</g>
	<g>
		<path class="st0" d="M160.99,38.8l3.54,3.54L137.66,69.2l-3.54-3.54L160.99,38.8z"/>
	</g>
</g>
<path class="st0" d="M139.78,111.44H70.22c-5.67,0-10.31-4.65-10.31-10.31V10.87c0-5.67,4.65-10.32,10.31-10.32h69.57
	c5.67,0,10.32,4.65,10.32,10.32v18.05h-5.16V10.87c0-2.83-2.32-5.16-5.16-5.16H70.22c-2.83,0-5.16,2.32-5.16,5.16v90.26
	c0,2.83,2.32,5.16,5.16,5.16h69.57c2.84,0,5.16-2.32,5.16-5.16V77.92h5.16v23.21C150.1,106.8,145.45,111.44,139.78,111.44
	L139.78,111.44z"/>
<g>
	<rect x="74.74" y="19.92" class="st0" width="60.52" height="5.16"/>
	<rect x="74.74" y="36.67" class="st0" width="43.42" height="5.16"/>
	<rect x="74.74" y="53.42" class="st0" width="36.42" height="5.16"/>
	<rect x="74.74" y="70.17" class="st0" width="43.42" height="5.16"/>
	<rect x="73.74" y="86.92" class="st0" width="60.52" height="5.16"/>
</g>
</svg>
