<?xml version="1.0" encoding="UTF-8" standalone="no"?>
<!DOCTYPE svg PUBLIC "-//W3C//DTD SVG 1.1//EN"
 "http://www.w3.org/Graphics/SVG/1.1/DTD/svg11.dtd">
<!-- Generated by graphviz version 7.1.0 (20230121.1956)
 -->
<!-- Title: dependency&#45;cruiser output Pages: 1 -->
<svg width="592pt" height="1580pt"
 viewBox="0.00 0.00 592.00 1579.84" xmlns="http://www.w3.org/2000/svg" xmlns:xlink="http://www.w3.org/1999/xlink">
<g id="graph0" class="graph" transform="scale(1 1) rotate(0) translate(4 1575.84)">
<title>dependency&#45;cruiser output</title>
<polygon fill="white" stroke="none" points="-4,4 -4,-1575.84 588,-1575.84 588,4 -4,4"/>
<g id="clust1" class="cluster">
<title>cluster_@</title>
<path fill="#ffffff" stroke="black" stroke-width="2" d="M445.5,-19.84C445.5,-19.84 517.5,-19.84 517.5,-19.84 523.5,-19.84 529.5,-25.84 529.5,-31.84 529.5,-31.84 529.5,-299.84 529.5,-299.84 529.5,-305.84 523.5,-311.84 517.5,-311.84 517.5,-311.84 445.5,-311.84 445.5,-311.84 439.5,-311.84 433.5,-305.84 433.5,-299.84 433.5,-299.84 433.5,-31.84 433.5,-31.84 433.5,-25.84 439.5,-19.84 445.5,-19.84"/>
<text text-anchor="middle" x="481.5" y="-300.64" font-family="Helvetica,sans-Serif" font-weight="bold" font-size="9.00">@</text>
</g>
<g id="clust2" class="cluster">
<title>cluster_@/lib</title>
<path fill="#ffffff" stroke="black" stroke-width="2" d="M453.5,-113.84C453.5,-113.84 509.5,-113.84 509.5,-113.84 515.5,-113.84 521.5,-119.84 521.5,-125.84 521.5,-125.84 521.5,-273.84 521.5,-273.84 521.5,-279.84 515.5,-285.84 509.5,-285.84 509.5,-285.84 453.5,-285.84 453.5,-285.84 447.5,-285.84 441.5,-279.84 441.5,-273.84 441.5,-273.84 441.5,-125.84 441.5,-125.84 441.5,-119.84 447.5,-113.84 453.5,-113.84"/>
<text text-anchor="middle" x="481.5" y="-274.64" font-family="Helvetica,sans-Serif" font-weight="bold" font-size="9.00">lib</text>
</g>
<g id="clust3" class="cluster">
<title>cluster_src</title>
<path fill="#ffffff" stroke="black" stroke-width="2" d="M20,-319.84C20,-319.84 564,-319.84 564,-319.84 570,-319.84 576,-325.84 576,-331.84 576,-331.84 576,-1551.84 576,-1551.84 576,-1557.84 570,-1563.84 564,-1563.84 564,-1563.84 20,-1563.84 20,-1563.84 14,-1563.84 8,-1557.84 8,-1551.84 8,-1551.84 8,-331.84 8,-331.84 8,-325.84 14,-319.84 20,-319.84"/>
<text text-anchor="middle" x="292" y="-1552.64" font-family="Helvetica,sans-Serif" font-weight="bold" font-size="9.00">src</text>
</g>
<g id="clust8" class="cluster">
<title>cluster_src/layouts</title>
<path fill="#ffffff" stroke="black" stroke-width="2" d="M39,-1181.84C39,-1181.84 215,-1181.84 215,-1181.84 221,-1181.84 227,-1187.84 227,-1193.84 227,-1193.84 227,-1221.84 227,-1221.84 227,-1227.84 221,-1233.84 215,-1233.84 215,-1233.84 39,-1233.84 39,-1233.84 33,-1233.84 27,-1227.84 27,-1221.84 27,-1221.84 27,-1193.84 27,-1193.84 27,-1187.84 33,-1181.84 39,-1181.84"/>
<text text-anchor="start" x="111" y="-1222.64" font-family="Helvetica,sans-Serif" font-weight="bold" font-size="9.00">layouts</text>
</g>
<g id="clust9" class="cluster">
<title>cluster_src/lib</title>
<path fill="#ffffff" stroke="black" stroke-width="2" d="M31,-567.84C31,-567.84 391,-567.84 391,-567.84 397,-567.84 403,-573.84 403,-579.84 403,-579.84 403,-1161.84 403,-1161.84 403,-1167.84 397,-1173.84 391,-1173.84 391,-1173.84 31,-1173.84 31,-1173.84 25,-1173.84 19,-1167.84 19,-1161.84 19,-1161.84 19,-579.84 19,-579.84 19,-573.84 25,-567.84 31,-567.84"/>
<text text-anchor="middle" x="211" y="-1162.64" font-family="Helvetica,sans-Serif" font-weight="bold" font-size="9.00">lib</text>
</g>
<g id="clust10" class="cluster">
<title>cluster_src/lib/auth</title>
<path fill="#ffffff" stroke="black" stroke-width="2" d="M39,-901.84C39,-901.84 383,-901.84 383,-901.84 389,-901.84 395,-907.84 395,-913.84 395,-913.84 395,-985.84 395,-985.84 395,-991.84 389,-997.84 383,-997.84 383,-997.84 39,-997.84 39,-997.84 33,-997.84 27,-991.84 27,-985.84 27,-985.84 27,-913.84 27,-913.84 27,-907.84 33,-901.84 39,-901.84"/>
<text text-anchor="start" x="201.5" y="-986.64" font-family="Helvetica,sans-Serif" font-weight="bold" font-size="9.00">auth</text>
</g>
<g id="clust13" class="cluster">
<title>cluster_src/lib/ui</title>
<path fill="#ffffff" stroke="black" stroke-width="2" d="M39,-695.84C39,-695.84 374,-695.84 374,-695.84 380,-695.84 386,-701.84 386,-707.84 386,-707.84 386,-881.84 386,-881.84 386,-887.84 380,-893.84 374,-893.84 374,-893.84 39,-893.84 39,-893.84 33,-893.84 27,-887.84 27,-881.84 27,-881.84 27,-707.84 27,-707.84 27,-701.84 33,-695.84 39,-695.84"/>
<text text-anchor="start" x="202.5" y="-882.64" font-family="Helvetica,sans-Serif" font-weight="bold" font-size="9.00">ui</text>
</g>
<g id="clust14" class="cluster">
<title>cluster_src/lib/ui/system</title>
<path fill="#ffffff" stroke="black" stroke-width="2" d="M320,-725.84C320,-725.84 366,-725.84 366,-725.84 372,-725.84 378,-731.84 378,-737.84 378,-737.84 378,-855.84 378,-855.84 378,-861.84 372,-867.84 366,-867.84 366,-867.84 320,-867.84 320,-867.84 314,-867.84 308,-861.84 308,-855.84 308,-855.84 308,-737.84 308,-737.84 308,-731.84 314,-725.84 320,-725.84"/>
<text text-anchor="middle" x="343" y="-856.64" font-family="Helvetica,sans-Serif" font-weight="bold" font-size="9.00">system</text>
</g>
<g id="clust15" class="cluster">
<title>cluster_src/lib/ui/uitpas</title>
<path fill="#ffffff" stroke="black" stroke-width="2" d="M154.5,-703.84C154.5,-703.84 225.5,-703.84 225.5,-703.84 231.5,-703.84 237.5,-709.84 237.5,-715.84 237.5,-715.84 237.5,-803.84 237.5,-803.84 237.5,-809.84 231.5,-815.84 225.5,-815.84 225.5,-815.84 154.5,-815.84 154.5,-815.84 148.5,-815.84 142.5,-809.84 142.5,-803.84 142.5,-803.84 142.5,-715.84 142.5,-715.84 142.5,-709.84 148.5,-703.84 154.5,-703.84"/>
<text text-anchor="middle" x="190" y="-804.64" font-family="Helvetica,sans-Serif" font-weight="bold" font-size="9.00">uitpas</text>
</g>
<g id="clust16" class="cluster">
<title>cluster_src/lib/utils</title>
<path fill="#ffffff" stroke="black" stroke-width="2" d="M39,-1005.84C39,-1005.84 382.5,-1005.84 382.5,-1005.84 388.5,-1005.84 394.5,-1011.84 394.5,-1017.84 394.5,-1017.84 394.5,-1135.84 394.5,-1135.84 394.5,-1141.84 388.5,-1147.84 382.5,-1147.84 382.5,-1147.84 39,-1147.84 39,-1147.84 33,-1147.84 27,-1141.84 27,-1135.84 27,-1135.84 27,-1017.84 27,-1017.84 27,-1011.84 33,-1005.84 39,-1005.84"/>
<text text-anchor="start" x="201.25" y="-1136.64" font-family="Helvetica,sans-Serif" font-weight="bold" font-size="9.00">utils</text>
</g>
<g id="clust17" class="cluster">
<title>cluster_src/lib/utils/hooks</title>
<path fill="#ffffff" stroke="black" stroke-width="2" d="M167,-1013.84C167,-1013.84 374.5,-1013.84 374.5,-1013.84 380.5,-1013.84 386.5,-1019.84 386.5,-1025.84 386.5,-1025.84 386.5,-1053.84 386.5,-1053.84 386.5,-1059.84 380.5,-1065.84 374.5,-1065.84 374.5,-1065.84 167,-1065.84 167,-1065.84 161,-1065.84 155,-1059.84 155,-1053.84 155,-1053.84 155,-1025.84 155,-1025.84 155,-1019.84 161,-1013.84 167,-1013.84"/>
<text text-anchor="middle" x="270.75" y="-1054.64" font-family="Helvetica,sans-Serif" font-weight="bold" font-size="9.00">hooks</text>
</g>
<g id="clust11" class="cluster">
<title>cluster_src/lib/dataAccess</title>
<path fill="#ffffff" stroke="black" stroke-width="2" d="M39,-635.84C39,-635.84 216,-635.84 216,-635.84 222,-635.84 228,-641.84 228,-647.84 228,-647.84 228,-675.84 228,-675.84 228,-681.84 222,-687.84 216,-687.84 216,-687.84 39,-687.84 39,-687.84 33,-687.84 27,-681.84 27,-675.84 27,-675.84 27,-647.84 27,-647.84 27,-641.84 33,-635.84 39,-635.84"/>
<text text-anchor="start" x="101.5" y="-676.64" font-family="Helvetica,sans-Serif" font-weight="bold" font-size="9.00">dataAccess</text>
</g>
<g id="clust12" class="cluster">
<title>cluster_src/lib/pageUtils</title>
<path fill="#ffffff" stroke="black" stroke-width="2" d="M39,-575.84C39,-575.84 263,-575.84 263,-575.84 269,-575.84 275,-581.84 275,-587.84 275,-587.84 275,-615.84 275,-615.84 275,-621.84 269,-627.84 263,-627.84 263,-627.84 39,-627.84 39,-627.84 33,-627.84 27,-621.84 27,-615.84 27,-615.84 27,-587.84 27,-587.84 27,-581.84 33,-575.84 39,-575.84"/>
<text text-anchor="start" x="130.5" y="-616.64" font-family="Helvetica,sans-Serif" font-weight="bold" font-size="9.00">pageUtils</text>
</g>
<g id="clust18" class="cluster">
<title>cluster_src/pages</title>
<path fill="#ffffff" stroke="black" stroke-width="2" d="M28,-327.84C28,-327.84 220,-327.84 220,-327.84 226,-327.84 232,-333.84 232,-339.84 232,-339.84 232,-547.84 232,-547.84 232,-553.84 226,-559.84 220,-559.84 220,-559.84 28,-559.84 28,-559.84 22,-559.84 16,-553.84 16,-547.84 16,-547.84 16,-339.84 16,-339.84 16,-333.84 22,-327.84 28,-327.84"/>
<text text-anchor="middle" x="124" y="-548.64" font-family="Helvetica,sans-Serif" font-weight="bold" font-size="9.00">pages</text>
</g>
<g id="clust19" class="cluster">
<title>cluster_src/pages/api</title>
<path fill="#ffffff" stroke="black" stroke-width="2" d="M39,-481.84C39,-481.84 85,-481.84 85,-481.84 91,-481.84 97,-487.84 97,-493.84 97,-493.84 97,-521.84 97,-521.84 97,-527.84 91,-533.84 85,-533.84 85,-533.84 39,-533.84 39,-533.84 33,-533.84 27,-527.84 27,-521.84 27,-521.84 27,-493.84 27,-493.84 27,-487.84 33,-481.84 39,-481.84"/>
<text text-anchor="middle" x="62" y="-522.64" font-family="Helvetica,sans-Serif" font-weight="bold" font-size="9.00">api</text>
</g>
<g id="clust20" class="cluster">
<title>cluster_src/pages/counters</title>
<path fill="#ffffff" stroke="black" stroke-width="2" d="M39,-335.84C39,-335.84 85,-335.84 85,-335.84 91,-335.84 97,-341.84 97,-347.84 97,-347.84 97,-375.84 97,-375.84 97,-381.84 91,-387.84 85,-387.84 85,-387.84 39,-387.84 39,-387.84 33,-387.84 27,-381.84 27,-375.84 27,-375.84 27,-347.84 27,-347.84 27,-341.84 33,-335.84 39,-335.84"/>
<text text-anchor="middle" x="62" y="-376.64" font-family="Helvetica,sans-Serif" font-weight="bold" font-size="9.00">counters</text>
</g>
<g id="clust4" class="cluster">
<title>cluster_src/feature&#45;counter</title>
<path fill="#ffffff" stroke="black" stroke-width="2" d="M39,-1241.84C39,-1241.84 383.5,-1241.84 383.5,-1241.84 389.5,-1241.84 395.5,-1247.84 395.5,-1253.84 395.5,-1253.84 395.5,-1281.84 395.5,-1281.84 395.5,-1287.84 389.5,-1293.84 383.5,-1293.84 383.5,-1293.84 39,-1293.84 39,-1293.84 33,-1293.84 27,-1287.84 27,-1281.84 27,-1281.84 27,-1253.84 27,-1253.84 27,-1247.84 33,-1241.84 39,-1241.84"/>
<text text-anchor="start" x="177.75" y="-1282.64" font-family="Helvetica,sans-Serif" font-weight="bold" font-size="9.00">feature&#45;counter</text>
</g>
<g id="clust5" class="cluster">
<title>cluster_src/feature&#45;legacy</title>
<path fill="#ffffff" stroke="black" stroke-width="2" d="M39,-1301.84C39,-1301.84 556,-1301.84 556,-1301.84 562,-1301.84 568,-1307.84 568,-1313.84 568,-1313.84 568,-1525.84 568,-1525.84 568,-1531.84 562,-1537.84 556,-1537.84 556,-1537.84 39,-1537.84 39,-1537.84 33,-1537.84 27,-1531.84 27,-1525.84 27,-1525.84 27,-1313.84 27,-1313.84 27,-1307.84 33,-1301.84 39,-1301.84"/>
<text text-anchor="start" x="266" y="-1526.64" font-family="Helvetica,sans-Serif" font-weight="bold" font-size="9.00">feature&#45;legacy</text>
</g>
<g id="clust6" class="cluster">
<title>cluster_src/feature&#45;legacy/components</title>
<path fill="#ffffff" stroke="black" stroke-width="2" d="M151,-1309.84C151,-1309.84 368.5,-1309.84 368.5,-1309.84 374.5,-1309.84 380.5,-1315.84 380.5,-1321.84 380.5,-1321.84 380.5,-1349.84 380.5,-1349.84 380.5,-1355.84 374.5,-1361.84 368.5,-1361.84 368.5,-1361.84 151,-1361.84 151,-1361.84 145,-1361.84 139,-1355.84 139,-1349.84 139,-1349.84 139,-1321.84 139,-1321.84 139,-1315.84 145,-1309.84 151,-1309.84"/>
<text text-anchor="middle" x="259.75" y="-1350.64" font-family="Helvetica,sans-Serif" font-weight="bold" font-size="9.00">components</text>
</g>
<g id="clust7" class="cluster">
<title>cluster_src/feature&#45;legacy/hooks</title>
<path fill="#ffffff" stroke="black" stroke-width="2" d="M295,-1369.84C295,-1369.84 548,-1369.84 548,-1369.84 554,-1369.84 560,-1375.84 560,-1381.84 560,-1381.84 560,-1499.84 560,-1499.84 560,-1505.84 554,-1511.84 548,-1511.84 548,-1511.84 295,-1511.84 295,-1511.84 289,-1511.84 283,-1505.84 283,-1499.84 283,-1499.84 283,-1381.84 283,-1381.84 283,-1375.84 289,-1369.84 295,-1369.84"/>
<text text-anchor="middle" x="421.5" y="-1500.64" font-family="Helvetica,sans-Serif" font-weight="bold" font-size="9.00">hooks</text>
</g>
<!-- @/feature&#45;counter -->
<g id="node1" class="node">
<title>@/feature&#45;counter</title>
<g id="a_node1"><a xlink:title="feature&#45;counter">
<path fill="#ffffcc" stroke="red" d="M515,-45.84C515,-45.84 448,-45.84 448,-45.84 445,-45.84 442,-42.84 442,-39.84 442,-39.84 442,-33.84 442,-33.84 442,-30.84 445,-27.84 448,-27.84 448,-27.84 515,-27.84 515,-27.84 518,-27.84 521,-30.84 521,-33.84 521,-33.84 521,-39.84 521,-39.84 521,-42.84 518,-45.84 515,-45.84"/>
<text text-anchor="start" x="450" y="-34.64" font-family="Helvetica,sans-Serif" font-size="9.00" fill="red">feature&#45;counter</text>
</a>
</g>
</g>
<!-- @/feature&#45;legacy -->
<g id="node2" class="node">
<title>@/feature&#45;legacy</title>
<g id="a_node2"><a xlink:title="feature&#45;legacy">
<path fill="#ffffcc" stroke="red" d="M513,-105.84C513,-105.84 450,-105.84 450,-105.84 447,-105.84 444,-102.84 444,-99.84 444,-99.84 444,-93.84 444,-93.84 444,-90.84 447,-87.84 450,-87.84 450,-87.84 513,-87.84 513,-87.84 516,-87.84 519,-90.84 519,-93.84 519,-93.84 519,-99.84 519,-99.84 519,-102.84 516,-105.84 513,-105.84"/>
<text text-anchor="start" x="452" y="-94.64" font-family="Helvetica,sans-Serif" font-size="9.00" fill="red">feature&#45;legacy</text>
</a>
</g>
</g>
<!-- @/layouts -->
<g id="node3" class="node">
<title>@/layouts</title>
<g id="a_node3"><a xlink:title="layouts">
<path fill="#ffffcc" stroke="red" d="M502.5,-75.84C502.5,-75.84 460.5,-75.84 460.5,-75.84 457.5,-75.84 454.5,-72.84 454.5,-69.84 454.5,-69.84 454.5,-63.84 454.5,-63.84 454.5,-60.84 457.5,-57.84 460.5,-57.84 460.5,-57.84 502.5,-57.84 502.5,-57.84 505.5,-57.84 508.5,-60.84 508.5,-63.84 508.5,-63.84 508.5,-69.84 508.5,-69.84 508.5,-72.84 505.5,-75.84 502.5,-75.84"/>
<text text-anchor="start" x="466.5" y="-64.64" font-family="Helvetica,sans-Serif" font-size="9.00" fill="red">layouts</text>
</a>
</g>
</g>
<!-- @/lib/auth -->
<g id="node4" class="node">
<title>@/lib/auth</title>
<g id="a_node4"><a xlink:title="auth">
<path fill="#ffffcc" stroke="red" d="M502.5,-199.84C502.5,-199.84 460.5,-199.84 460.5,-199.84 457.5,-199.84 454.5,-196.84 454.5,-193.84 454.5,-193.84 454.5,-187.84 454.5,-187.84 454.5,-184.84 457.5,-181.84 460.5,-181.84 460.5,-181.84 502.5,-181.84 502.5,-181.84 505.5,-181.84 508.5,-184.84 508.5,-187.84 508.5,-187.84 508.5,-193.84 508.5,-193.84 508.5,-196.84 505.5,-199.84 502.5,-199.84"/>
<text text-anchor="start" x="472" y="-188.64" font-family="Helvetica,sans-Serif" font-size="9.00" fill="red">auth</text>
</a>
</g>
</g>
<!-- @/lib/dataAccess -->
<g id="node5" class="node">
<title>@/lib/dataAccess</title>
<g id="a_node5"><a xlink:title="dataAccess">
<path fill="#ffffcc" stroke="red" d="M507.5,-229.84C507.5,-229.84 455.5,-229.84 455.5,-229.84 452.5,-229.84 449.5,-226.84 449.5,-223.84 449.5,-223.84 449.5,-217.84 449.5,-217.84 449.5,-214.84 452.5,-211.84 455.5,-211.84 455.5,-211.84 507.5,-211.84 507.5,-211.84 510.5,-211.84 513.5,-214.84 513.5,-217.84 513.5,-217.84 513.5,-223.84 513.5,-223.84 513.5,-226.84 510.5,-229.84 507.5,-229.84"/>
<text text-anchor="start" x="457.5" y="-218.64" font-family="Helvetica,sans-Serif" font-size="9.00" fill="red">dataAccess</text>
</a>
</g>
</g>
<!-- @/lib/pageUtils -->
<g id="node6" class="node">
<title>@/lib/pageUtils</title>
<g id="a_node6"><a xlink:title="pageUtils">
<path fill="#ffffcc" stroke="red" d="M503.5,-139.84C503.5,-139.84 459.5,-139.84 459.5,-139.84 456.5,-139.84 453.5,-136.84 453.5,-133.84 453.5,-133.84 453.5,-127.84 453.5,-127.84 453.5,-124.84 456.5,-121.84 459.5,-121.84 459.5,-121.84 503.5,-121.84 503.5,-121.84 506.5,-121.84 509.5,-124.84 509.5,-127.84 509.5,-127.84 509.5,-133.84 509.5,-133.84 509.5,-136.84 506.5,-139.84 503.5,-139.84"/>
<text text-anchor="start" x="461.5" y="-128.64" font-family="Helvetica,sans-Serif" font-size="9.00" fill="red">pageUtils</text>
</a>
</g>
</g>
<!-- @/lib/ui -->
<g id="node7" class="node">
<title>@/lib/ui</title>
<g id="a_node7"><a xlink:title="ui">
<path fill="#ffffcc" stroke="red" d="M502.5,-169.84C502.5,-169.84 460.5,-169.84 460.5,-169.84 457.5,-169.84 454.5,-166.84 454.5,-163.84 454.5,-163.84 454.5,-157.84 454.5,-157.84 454.5,-154.84 457.5,-151.84 460.5,-151.84 460.5,-151.84 502.5,-151.84 502.5,-151.84 505.5,-151.84 508.5,-154.84 508.5,-157.84 508.5,-157.84 508.5,-163.84 508.5,-163.84 508.5,-166.84 505.5,-169.84 502.5,-169.84"/>
<text text-anchor="start" x="477.5" y="-158.64" font-family="Helvetica,sans-Serif" font-size="9.00" fill="red">ui</text>
</a>
</g>
</g>
<!-- @/lib/utils -->
<g id="node8" class="node">
<title>@/lib/utils</title>
<g id="a_node8"><a xlink:title="utils">
<path fill="#ffffcc" stroke="red" d="M502.5,-259.84C502.5,-259.84 460.5,-259.84 460.5,-259.84 457.5,-259.84 454.5,-256.84 454.5,-253.84 454.5,-253.84 454.5,-247.84 454.5,-247.84 454.5,-244.84 457.5,-241.84 460.5,-241.84 460.5,-241.84 502.5,-241.84 502.5,-241.84 505.5,-241.84 508.5,-244.84 508.5,-247.84 508.5,-247.84 508.5,-253.84 508.5,-253.84 508.5,-256.84 505.5,-259.84 502.5,-259.84"/>
<text text-anchor="start" x="473" y="-248.64" font-family="Helvetica,sans-Serif" font-size="9.00" fill="red">utils</text>
</a>
</g>
</g>
<!-- generated -->
<g id="node9" class="node">
<title>generated</title>
<g id="a_node9"><a xlink:href="generated" xlink:title="generated">
<polygon fill="#ffffcc" stroke="black" points="219.5,-311.84 162.5,-311.84 160.5,-309.84 160.5,-293.84 217.5,-293.84 219.5,-295.84 219.5,-311.84"/>
<polyline fill="none" stroke="black" points="217.5,-309.84 160.5,-309.84"/>
<polyline fill="none" stroke="black" points="217.5,-309.84 217.5,-293.84"/>
<polyline fill="none" stroke="black" points="217.5,-309.84 219.5,-311.84"/>
<text text-anchor="middle" x="190" y="-300.64" font-family="Helvetica,sans-Serif" font-size="9.00">generated</text>
</a>
</g>
</g>
<!-- src/feature&#45;counter/CounterPicker.tsx -->
<g id="node10" class="node">
<title>src/feature&#45;counter/CounterPicker.tsx</title>
<g id="a_node10"><a xlink:href="src/feature-counter/CounterPicker.tsx" xlink:title="CounterPicker.tsx">
<path fill="#bbfeff" stroke="black" d="M381.5,-1267.84C381.5,-1267.84 304.5,-1267.84 304.5,-1267.84 301.5,-1267.84 298.5,-1264.84 298.5,-1261.84 298.5,-1261.84 298.5,-1255.84 298.5,-1255.84 298.5,-1252.84 301.5,-1249.84 304.5,-1249.84 304.5,-1249.84 381.5,-1249.84 381.5,-1249.84 384.5,-1249.84 387.5,-1252.84 387.5,-1255.84 387.5,-1255.84 387.5,-1261.84 387.5,-1261.84 387.5,-1264.84 384.5,-1267.84 381.5,-1267.84"/>
<text text-anchor="start" x="306.5" y="-1256.64" font-family="Helvetica,sans-Serif" font-size="9.00">CounterPicker.tsx</text>
</a>
</g>
</g>
<!-- src/feature&#45;counter/CounterPicker.tsx&#45;&gt;@/lib/dataAccess -->
<g id="edge1" class="edge">
<title>src/feature&#45;counter/CounterPicker.tsx&#45;&gt;@/lib/dataAccess</title>
<path fill="none" stroke="#000000" stroke-width="2" stroke-opacity="0.200000" d="M347.94,-1249.58C359.27,-1222.45 391.78,-1140.5 403,-1068.84 404.79,-1057.41 403.69,-244.81 411,-235.84 418.2,-227.01 429.25,-222.59 440.43,-220.56"/>
<polygon fill="#000000" fill-opacity="0.200000" stroke="#000000" stroke-width="2" stroke-opacity="0.200000" points="440.67,-222.65 446.35,-219.79 440.13,-218.48 440.67,-222.65"/>
</g>
<!-- src/feature&#45;counter/CounterPicker.tsx&#45;&gt;@/lib/ui -->
<g id="edge2" class="edge">
<title>src/feature&#45;counter/CounterPicker.tsx&#45;&gt;@/lib/ui</title>
<path fill="none" stroke="#000000" stroke-width="2" stroke-opacity="0.200000" d="M347.95,-1249.58C359.27,-1222.45 391.8,-1140.5 403,-1068.84 404.92,-1056.59 403.17,-185.46 411,-175.84 419.3,-165.65 432.71,-161.34 445.55,-159.79"/>
<polygon fill="#000000" fill-opacity="0.200000" stroke="#000000" stroke-width="2" stroke-opacity="0.200000" points="445.44,-161.9 451.26,-159.34 445.11,-157.71 445.44,-161.9"/>
</g>
<!-- src/feature&#45;counter/SelectCounterPage.tsx -->
<g id="node11" class="node">
<title>src/feature&#45;counter/SelectCounterPage.tsx</title>
<g id="a_node11"><a xlink:href="src/feature-counter/SelectCounterPage.tsx" xlink:title="SelectCounterPage.tsx">
<path fill="#bbfeff" stroke="black" d="M239,-1267.84C239,-1267.84 141,-1267.84 141,-1267.84 138,-1267.84 135,-1264.84 135,-1261.84 135,-1261.84 135,-1255.84 135,-1255.84 135,-1252.84 138,-1249.84 141,-1249.84 141,-1249.84 239,-1249.84 239,-1249.84 242,-1249.84 245,-1252.84 245,-1255.84 245,-1255.84 245,-1261.84 245,-1261.84 245,-1264.84 242,-1267.84 239,-1267.84"/>
<text text-anchor="start" x="143" y="-1256.64" font-family="Helvetica,sans-Serif" font-size="9.00">SelectCounterPage.tsx</text>
</a>
</g>
</g>
<!-- src/feature&#45;counter/SelectCounterPage.tsx&#45;&gt;@/lib/ui -->
<g id="edge4" class="edge">
<title>src/feature&#45;counter/SelectCounterPage.tsx&#45;&gt;@/lib/ui</title>
<path fill="none" stroke="#000000" stroke-width="2" stroke-opacity="0.200000" d="M245.4,-1255.27C256.84,-1251.89 267.65,-1246.21 275,-1236.84 283.81,-1225.6 281.1,-736.99 283,-722.84 311.53,-510.02 365.41,-466.25 403,-254.84 406.09,-237.47 399.24,-188.99 411,-175.84 419.61,-166.21 432.78,-161.95 445.36,-160.27"/>
<polygon fill="#000000" fill-opacity="0.200000" stroke="#000000" stroke-width="2" stroke-opacity="0.200000" points="445.53,-162.37 451.32,-159.74 445.16,-158.18 445.53,-162.37"/>
</g>
<!-- src/feature&#45;counter/SelectCounterPage.tsx&#45;&gt;src/feature&#45;counter/CounterPicker.tsx -->
<g id="edge3" class="edge">
<title>src/feature&#45;counter/SelectCounterPage.tsx&#45;&gt;src/feature&#45;counter/CounterPicker.tsx</title>
<path fill="none" stroke="#000000" stroke-width="2" stroke-opacity="0.200000" d="M245.09,-1258.84C259.52,-1258.84 275.1,-1258.84 289.45,-1258.84"/>
<polygon fill="#000000" fill-opacity="0.200000" stroke="#000000" stroke-width="2" stroke-opacity="0.200000" points="289.18,-1260.94 295.18,-1258.84 289.18,-1256.74 289.18,-1260.94"/>
</g>
<!-- src/feature&#45;counter/index.ts -->
<g id="node12" class="node">
<title>src/feature&#45;counter/index.ts</title>
<g id="a_node12"><a xlink:href="src/feature-counter/index.ts" xlink:title="index.ts">
<path fill="#ddfeff" stroke="black" d="M83,-1267.84C83,-1267.84 41,-1267.84 41,-1267.84 38,-1267.84 35,-1264.84 35,-1261.84 35,-1261.84 35,-1255.84 35,-1255.84 35,-1252.84 38,-1249.84 41,-1249.84 41,-1249.84 83,-1249.84 83,-1249.84 86,-1249.84 89,-1252.84 89,-1255.84 89,-1255.84 89,-1261.84 89,-1261.84 89,-1264.84 86,-1267.84 83,-1267.84"/>
<text text-anchor="start" x="46" y="-1256.64" font-family="Helvetica,sans-Serif" font-size="9.00">index.ts</text>
</a>
</g>
</g>
<!-- src/feature&#45;counter/index.ts&#45;&gt;src/feature&#45;counter/SelectCounterPage.tsx -->
<g id="edge5" class="edge">
<title>src/feature&#45;counter/index.ts&#45;&gt;src/feature&#45;counter/SelectCounterPage.tsx</title>
<path fill="none" stroke="#000000" stroke-width="2" stroke-opacity="0.200000" d="M89.41,-1258.84C100.08,-1258.84 112.9,-1258.84 125.73,-1258.84"/>
<polygon fill="#000000" fill-opacity="0.200000" stroke="#000000" stroke-width="2" stroke-opacity="0.200000" points="125.56,-1260.94 131.56,-1258.84 125.56,-1256.74 125.56,-1260.94"/>
</g>
<!-- src/feature&#45;legacy/components/FallbackPage.tsx -->
<g id="node13" class="node">
<title>src/feature&#45;legacy/components/FallbackPage.tsx</title>
<g id="a_node13"><a xlink:href="src/feature-legacy/components/FallbackPage.tsx" xlink:title="FallbackPage.tsx">
<path fill="#bbfeff" stroke="black" d="M227,-1335.84C227,-1335.84 153,-1335.84 153,-1335.84 150,-1335.84 147,-1332.84 147,-1329.84 147,-1329.84 147,-1323.84 147,-1323.84 147,-1320.84 150,-1317.84 153,-1317.84 153,-1317.84 227,-1317.84 227,-1317.84 230,-1317.84 233,-1320.84 233,-1323.84 233,-1323.84 233,-1329.84 233,-1329.84 233,-1332.84 230,-1335.84 227,-1335.84"/>
<text text-anchor="start" x="155" y="-1324.64" font-family="Helvetica,sans-Serif" font-size="9.00">FallbackPage.tsx</text>
</a>
</g>
</g>
<!-- src/feature&#45;legacy/hooks/useAuthChanged.ts -->
<g id="node14" class="node">
<title>src/feature&#45;legacy/hooks/useAuthChanged.ts</title>
<g id="a_node14"><a xlink:href="src/feature-legacy/hooks/useAuthChanged.ts" xlink:title="useAuthChanged.ts">
<path fill="#ddfeff" stroke="black" d="M386,-1395.84C386,-1395.84 300,-1395.84 300,-1395.84 297,-1395.84 294,-1392.84 294,-1389.84 294,-1389.84 294,-1383.84 294,-1383.84 294,-1380.84 297,-1377.84 300,-1377.84 300,-1377.84 386,-1377.84 386,-1377.84 389,-1377.84 392,-1380.84 392,-1383.84 392,-1383.84 392,-1389.84 392,-1389.84 392,-1392.84 389,-1395.84 386,-1395.84"/>
<text text-anchor="start" x="302" y="-1384.64" font-family="Helvetica,sans-Serif" font-size="9.00">useAuthChanged.ts</text>
</a>
</g>
</g>
<!-- src/feature&#45;legacy/components/FallbackPage.tsx&#45;&gt;src/feature&#45;legacy/hooks/useAuthChanged.ts -->
<g id="edge6" class="edge">
<title>src/feature&#45;legacy/components/FallbackPage.tsx&#45;&gt;src/feature&#45;legacy/hooks/useAuthChanged.ts</title>
<path fill="none" stroke="#000000" stroke-width="2" stroke-opacity="0.200000" d="M233.2,-1324.67C247.9,-1326.01 263.56,-1330.06 275,-1339.84 283.87,-1347.42 274.95,-1356.4 283,-1364.84 286.13,-1368.12 289.79,-1370.91 293.73,-1373.29"/>
<polygon fill="#000000" fill-opacity="0.200000" stroke="#000000" stroke-width="2" stroke-opacity="0.200000" points="292.6,-1375.07 298.89,-1375.98 294.54,-1371.35 292.6,-1375.07"/>
</g>
<!-- src/feature&#45;legacy/hooks/useLegacyPath.ts -->
<g id="node15" class="node">
<title>src/feature&#45;legacy/hooks/useLegacyPath.ts</title>
<g id="a_node15"><a xlink:href="src/feature-legacy/hooks/useLegacyPath.ts" xlink:title="useLegacyPath.ts">
<path fill="#ddfeff" stroke="black" d="M381.5,-1425.84C381.5,-1425.84 304.5,-1425.84 304.5,-1425.84 301.5,-1425.84 298.5,-1422.84 298.5,-1419.84 298.5,-1419.84 298.5,-1413.84 298.5,-1413.84 298.5,-1410.84 301.5,-1407.84 304.5,-1407.84 304.5,-1407.84 381.5,-1407.84 381.5,-1407.84 384.5,-1407.84 387.5,-1410.84 387.5,-1413.84 387.5,-1413.84 387.5,-1419.84 387.5,-1419.84 387.5,-1422.84 384.5,-1425.84 381.5,-1425.84"/>
<text text-anchor="start" x="306.5" y="-1414.64" font-family="Helvetica,sans-Serif" font-size="9.00">useLegacyPath.ts</text>
</a>
</g>
</g>
<!-- src/feature&#45;legacy/components/FallbackPage.tsx&#45;&gt;src/feature&#45;legacy/hooks/useLegacyPath.ts -->
<g id="edge7" class="edge">
<title>src/feature&#45;legacy/components/FallbackPage.tsx&#45;&gt;src/feature&#45;legacy/hooks/useLegacyPath.ts</title>
<path fill="none" stroke="#000000" stroke-width="2" stroke-opacity="0.200000" d="M233.34,-1323.53C248.41,-1324.65 264.29,-1328.85 275,-1339.84 294.4,-1359.73 264.57,-1381.04 283,-1401.84 285.16,-1404.28 287.65,-1406.35 290.37,-1408.1"/>
<polygon fill="#000000" fill-opacity="0.200000" stroke="#000000" stroke-width="2" stroke-opacity="0.200000" points="289.02,-1409.76 295.32,-1410.65 290.95,-1406.03 289.02,-1409.76"/>
</g>
<!-- src/feature&#45;legacy/hooks/useNotFoundPaths.ts -->
<g id="node16" class="node">
<title>src/feature&#45;legacy/hooks/useNotFoundPaths.ts</title>
<g id="a_node16"><a xlink:href="src/feature-legacy/hooks/useNotFoundPaths.ts" xlink:title="useNotFoundPaths.ts">
<path fill="#ddfeff" stroke="black" d="M389,-1455.84C389,-1455.84 297,-1455.84 297,-1455.84 294,-1455.84 291,-1452.84 291,-1449.84 291,-1449.84 291,-1443.84 291,-1443.84 291,-1440.84 294,-1437.84 297,-1437.84 297,-1437.84 389,-1437.84 389,-1437.84 392,-1437.84 395,-1440.84 395,-1443.84 395,-1443.84 395,-1449.84 395,-1449.84 395,-1452.84 392,-1455.84 389,-1455.84"/>
<text text-anchor="start" x="299" y="-1444.64" font-family="Helvetica,sans-Serif" font-size="9.00">useNotFoundPaths.ts</text>
</a>
</g>
</g>
<!-- src/feature&#45;legacy/components/FallbackPage.tsx&#45;&gt;src/feature&#45;legacy/hooks/useNotFoundPaths.ts -->
<g id="edge8" class="edge">
<title>src/feature&#45;legacy/components/FallbackPage.tsx&#45;&gt;src/feature&#45;legacy/hooks/useNotFoundPaths.ts</title>
<path fill="none" stroke="#000000" stroke-width="2" stroke-opacity="0.200000" d="M233.15,-1323.26C248.38,-1324.3 264.42,-1328.52 275,-1339.84 289.02,-1354.83 269.71,-1416.2 283,-1431.84 283.27,-1432.16 283.55,-1432.48 283.84,-1432.79"/>
<polygon fill="#000000" fill-opacity="0.200000" stroke="#000000" stroke-width="2" stroke-opacity="0.200000" points="282.29,-1434.23 288.24,-1436.46 284.98,-1431.01 282.29,-1434.23"/>
</g>
<!-- src/feature&#45;legacy/components/IFrame.tsx -->
<g id="node17" class="node">
<title>src/feature&#45;legacy/components/IFrame.tsx</title>
<g id="a_node17"><a xlink:href="src/feature-legacy/components/IFrame.tsx" xlink:title="IFrame.tsx">
<path fill="#bbfeff" stroke="black" d="M366.5,-1335.84C366.5,-1335.84 319.5,-1335.84 319.5,-1335.84 316.5,-1335.84 313.5,-1332.84 313.5,-1329.84 313.5,-1329.84 313.5,-1323.84 313.5,-1323.84 313.5,-1320.84 316.5,-1317.84 319.5,-1317.84 319.5,-1317.84 366.5,-1317.84 366.5,-1317.84 369.5,-1317.84 372.5,-1320.84 372.5,-1323.84 372.5,-1323.84 372.5,-1329.84 372.5,-1329.84 372.5,-1332.84 369.5,-1335.84 366.5,-1335.84"/>
<text text-anchor="start" x="321.5" y="-1324.64" font-family="Helvetica,sans-Serif" font-size="9.00">IFrame.tsx</text>
</a>
</g>
</g>
<!-- src/feature&#45;legacy/components/FallbackPage.tsx&#45;&gt;src/feature&#45;legacy/components/IFrame.tsx -->
<g id="edge9" class="edge">
<title>src/feature&#45;legacy/components/FallbackPage.tsx&#45;&gt;src/feature&#45;legacy/components/IFrame.tsx</title>
<path fill="none" stroke="#000000" stroke-width="2" stroke-opacity="0.200000" d="M233.46,-1326.84C255.75,-1326.84 282.82,-1326.84 304.35,-1326.84"/>
<polygon fill="#000000" fill-opacity="0.200000" stroke="#000000" stroke-width="2" stroke-opacity="0.200000" points="304.18,-1328.94 310.18,-1326.84 304.18,-1324.74 304.18,-1328.94"/>
</g>
<!-- src/feature&#45;legacy/hooks/useAuthChanged.ts&#45;&gt;@/lib/auth -->
<g id="edge12" class="edge">
<title>src/feature&#45;legacy/hooks/useAuthChanged.ts&#45;&gt;@/lib/auth</title>
<path fill="none" stroke="#000000" stroke-width="2" stroke-opacity="0.200000" d="M388.18,-1377.35C394,-1374.28 399.24,-1370.21 403,-1364.84 421.45,-1338.46 390.69,-230.82 411,-205.84 419.29,-195.64 432.7,-191.33 445.54,-189.78"/>
<polygon fill="#000000" fill-opacity="0.200000" stroke="#000000" stroke-width="2" stroke-opacity="0.200000" points="445.43,-191.89 451.25,-189.34 445.1,-187.71 445.43,-191.89"/>
</g>
<!-- src/feature&#45;legacy/hooks/useHandleWindowMessage.ts -->
<g id="node18" class="node">
<title>src/feature&#45;legacy/hooks/useHandleWindowMessage.ts</title>
<g id="a_node18"><a xlink:href="src/feature-legacy/hooks/useHandleWindowMessage.ts" xlink:title="useHandleWindowMessage.ts">
<path fill="#ddfeff" stroke="black" d="M546,-1425.84C546,-1425.84 417,-1425.84 417,-1425.84 414,-1425.84 411,-1422.84 411,-1419.84 411,-1419.84 411,-1413.84 411,-1413.84 411,-1410.84 414,-1407.84 417,-1407.84 417,-1407.84 546,-1407.84 546,-1407.84 549,-1407.84 552,-1410.84 552,-1413.84 552,-1413.84 552,-1419.84 552,-1419.84 552,-1422.84 549,-1425.84 546,-1425.84"/>
<text text-anchor="start" x="419" y="-1414.64" font-family="Helvetica,sans-Serif" font-size="9.00">useHandleWindowMessage.ts</text>
</a>
</g>
</g>
<!-- src/feature&#45;legacy/hooks/useAuthChanged.ts&#45;&gt;src/feature&#45;legacy/hooks/useHandleWindowMessage.ts -->
<g id="edge11" class="edge">
<title>src/feature&#45;legacy/hooks/useAuthChanged.ts&#45;&gt;src/feature&#45;legacy/hooks/useHandleWindowMessage.ts</title>
<path fill="none" stroke="#000000" stroke-width="2" stroke-opacity="0.200000" d="M387.19,-1396.33C400.51,-1399.26 415.32,-1402.51 429.14,-1405.55"/>
<polygon fill="#000000" fill-opacity="0.200000" stroke="#000000" stroke-width="2" stroke-opacity="0.200000" points="428.32,-1407.52 434.63,-1406.76 429.23,-1403.42 428.32,-1407.52"/>
</g>
<!-- src/feature&#45;legacy/hooks/useLegacyPath.ts&#45;&gt;@/lib/utils -->
<g id="edge14" class="edge">
<title>src/feature&#45;legacy/hooks/useLegacyPath.ts&#45;&gt;@/lib/utils</title>
<path fill="none" stroke="#000000" stroke-width="2" stroke-opacity="0.200000" d="M387.95,-1412.37C393.72,-1410.01 399.01,-1406.63 403,-1401.84 421.97,-1379.06 472.16,-413.53 479.58,-268.89"/>
<polygon fill="#000000" fill-opacity="0.200000" stroke="#000000" stroke-width="2" stroke-opacity="0.200000" points="481.66,-269.37 479.87,-263.27 477.46,-269.15 481.66,-269.37"/>
</g>
<!-- src/feature&#45;legacy/hooks/useNotFoundPaths.ts&#45;&gt;src/feature&#45;legacy/hooks/useHandleWindowMessage.ts -->
<g id="edge15" class="edge">
<title>src/feature&#45;legacy/hooks/useNotFoundPaths.ts&#45;&gt;src/feature&#45;legacy/hooks/useHandleWindowMessage.ts</title>
<path fill="none" stroke="#000000" stroke-width="2" stroke-opacity="0.200000" d="M387.19,-1437.35C400.51,-1434.42 415.32,-1431.17 429.14,-1428.13"/>
<polygon fill="#000000" fill-opacity="0.200000" stroke="#000000" stroke-width="2" stroke-opacity="0.200000" points="429.23,-1430.26 434.63,-1426.92 428.32,-1426.16 429.23,-1430.26"/>
</g>
<!-- src/feature&#45;legacy/components/IFrame.tsx&#45;&gt;@/lib/ui -->
<g id="edge10" class="edge">
<title>src/feature&#45;legacy/components/IFrame.tsx&#45;&gt;@/lib/ui</title>
<path fill="none" stroke="#000000" stroke-width="2" stroke-opacity="0.200000" d="M372.89,-1319.31C384.31,-1314.77 396.29,-1307.69 403,-1296.84 419.38,-1270.35 391.35,-200 411,-175.84 419.29,-165.65 432.7,-161.34 445.54,-159.78"/>
<polygon fill="#000000" fill-opacity="0.200000" stroke="#000000" stroke-width="2" stroke-opacity="0.200000" points="445.43,-161.89 451.25,-159.34 445.11,-157.71 445.43,-161.89"/>
</g>
<!-- src/feature&#45;legacy/hooks/useHandleWindowMessage.ts&#45;&gt;@/lib/utils -->
<g id="edge13" class="edge">
<title>src/feature&#45;legacy/hooks/useHandleWindowMessage.ts&#45;&gt;@/lib/utils</title>
<path fill="none" stroke="#000000" stroke-width="2" stroke-opacity="0.200000" d="M481.5,-1407.52C481.5,-1028.08 481.5,-648.64 481.5,-269.2"/>
<polygon fill="#000000" fill-opacity="0.200000" stroke="#000000" stroke-width="2" stroke-opacity="0.200000" points="483.6,-269.26 481.5,-263.26 479.4,-269.26 483.6,-269.26"/>
</g>
<!-- src/feature&#45;legacy/hooks/useUrlChanged.ts -->
<g id="node19" class="node">
<title>src/feature&#45;legacy/hooks/useUrlChanged.ts</title>
<g id="a_node19"><a xlink:href="src/feature-legacy/hooks/useUrlChanged.ts" xlink:title="useUrlChanged.ts">
<path fill="#ddfeff" stroke="black" d="M382.5,-1485.84C382.5,-1485.84 303.5,-1485.84 303.5,-1485.84 300.5,-1485.84 297.5,-1482.84 297.5,-1479.84 297.5,-1479.84 297.5,-1473.84 297.5,-1473.84 297.5,-1470.84 300.5,-1467.84 303.5,-1467.84 303.5,-1467.84 382.5,-1467.84 382.5,-1467.84 385.5,-1467.84 388.5,-1470.84 388.5,-1473.84 388.5,-1473.84 388.5,-1479.84 388.5,-1479.84 388.5,-1482.84 385.5,-1485.84 382.5,-1485.84"/>
<text text-anchor="start" x="305.5" y="-1474.64" font-family="Helvetica,sans-Serif" font-size="9.00">useUrlChanged.ts</text>
</a>
</g>
</g>
<!-- src/feature&#45;legacy/hooks/useUrlChanged.ts&#45;&gt;src/feature&#45;legacy/hooks/useHandleWindowMessage.ts -->
<g id="edge16" class="edge">
<title>src/feature&#45;legacy/hooks/useUrlChanged.ts&#45;&gt;src/feature&#45;legacy/hooks/useHandleWindowMessage.ts</title>
<path fill="none" stroke="#000000" stroke-width="2" stroke-opacity="0.200000" d="M386.99,-1467.4C392.46,-1465.77 397.91,-1463.92 403,-1461.84 423.24,-1453.58 444.61,-1440.83 459.77,-1431.01"/>
<polygon fill="#000000" fill-opacity="0.200000" stroke="#000000" stroke-width="2" stroke-opacity="0.200000" points="460.71,-1432.9 464.57,-1427.84 458.4,-1429.4 460.71,-1432.9"/>
</g>
<!-- src/feature&#45;legacy/index.ts -->
<g id="node20" class="node">
<title>src/feature&#45;legacy/index.ts</title>
<g id="a_node20"><a xlink:href="src/feature-legacy/index.ts" xlink:title="index.ts">
<path fill="#ddfeff" stroke="black" d="M83,-1383.84C83,-1383.84 41,-1383.84 41,-1383.84 38,-1383.84 35,-1380.84 35,-1377.84 35,-1377.84 35,-1371.84 35,-1371.84 35,-1368.84 38,-1365.84 41,-1365.84 41,-1365.84 83,-1365.84 83,-1365.84 86,-1365.84 89,-1368.84 89,-1371.84 89,-1371.84 89,-1377.84 89,-1377.84 89,-1380.84 86,-1383.84 83,-1383.84"/>
<text text-anchor="start" x="46" y="-1372.64" font-family="Helvetica,sans-Serif" font-size="9.00">index.ts</text>
</a>
</g>
</g>
<!-- src/feature&#45;legacy/index.ts&#45;&gt;src/feature&#45;legacy/components/FallbackPage.tsx -->
<g id="edge17" class="edge">
<title>src/feature&#45;legacy/index.ts&#45;&gt;src/feature&#45;legacy/components/FallbackPage.tsx</title>
<path fill="none" stroke="#000000" stroke-width="2" stroke-opacity="0.200000" d="M73.3,-1365.55C82.88,-1357.45 97.91,-1346.04 113,-1339.84 120.81,-1336.63 129.39,-1334.21 137.88,-1332.39"/>
<polygon fill="#000000" fill-opacity="0.200000" stroke="#000000" stroke-width="2" stroke-opacity="0.200000" points="138.19,-1334.47 143.69,-1331.27 137.4,-1330.34 138.19,-1334.47"/>
</g>
<!-- src/feature&#45;legacy/index.ts&#45;&gt;src/feature&#45;legacy/hooks/useUrlChanged.ts -->
<g id="edge18" class="edge">
<title>src/feature&#45;legacy/index.ts&#45;&gt;src/feature&#45;legacy/hooks/useUrlChanged.ts</title>
<path fill="none" stroke="#000000" stroke-width="2" stroke-opacity="0.200000" d="M84.22,-1384.28C123.08,-1401.34 208.55,-1437.76 283,-1461.84 286.3,-1462.91 289.72,-1463.95 293.18,-1464.95"/>
<polygon fill="#000000" fill-opacity="0.200000" stroke="#000000" stroke-width="2" stroke-opacity="0.200000" points="292.55,-1466.95 298.9,-1466.54 293.68,-1462.91 292.55,-1466.95"/>
</g>
<!-- src/layouts/Layout.tsx -->
<g id="node21" class="node">
<title>src/layouts/Layout.tsx</title>
<g id="a_node21"><a xlink:href="src/layouts/Layout.tsx" xlink:title="Layout.tsx">
<path fill="#bbfeff" stroke="black" d="M213,-1207.84C213,-1207.84 167,-1207.84 167,-1207.84 164,-1207.84 161,-1204.84 161,-1201.84 161,-1201.84 161,-1195.84 161,-1195.84 161,-1192.84 164,-1189.84 167,-1189.84 167,-1189.84 213,-1189.84 213,-1189.84 216,-1189.84 219,-1192.84 219,-1195.84 219,-1195.84 219,-1201.84 219,-1201.84 219,-1204.84 216,-1207.84 213,-1207.84"/>
<text text-anchor="start" x="169" y="-1196.64" font-family="Helvetica,sans-Serif" font-size="9.00">Layout.tsx</text>
</a>
</g>
</g>
<!-- src/layouts/Layout.tsx&#45;&gt;@/feature&#45;legacy -->
<g id="edge19" class="edge">
<title>src/layouts/Layout.tsx&#45;&gt;@/feature&#45;legacy</title>
<path fill="none" stroke="#000000" stroke-width="2" stroke-opacity="0.200000" d="M219.37,-1190.85C238.76,-1183.76 263.02,-1171.27 275,-1150.84 287.99,-1128.67 272.43,-249.26 283,-225.84 314.45,-156.13 342.66,-145.16 411,-110.84 418.35,-107.15 426.6,-104.43 434.78,-102.43"/>
<polygon fill="#000000" fill-opacity="0.200000" stroke="#000000" stroke-width="2" stroke-opacity="0.200000" points="435.2,-104.49 440.62,-101.17 434.31,-100.38 435.2,-104.49"/>
</g>
<!-- src/layouts/Layout.tsx&#45;&gt;@/lib/ui -->
<g id="edge20" class="edge">
<title>src/layouts/Layout.tsx&#45;&gt;@/lib/ui</title>
<path fill="none" stroke="#000000" stroke-width="2" stroke-opacity="0.200000" d="M219.37,-1190.85C238.76,-1183.76 263.02,-1171.27 275,-1150.84 287.51,-1129.51 267.85,-280.38 283,-260.84 316.82,-217.22 366.19,-269.97 403,-228.84 418.89,-211.09 394.69,-193.2 411,-175.84 419.77,-166.5 432.86,-162.27 445.32,-160.54"/>
<polygon fill="#000000" fill-opacity="0.200000" stroke="#000000" stroke-width="2" stroke-opacity="0.200000" points="445.42,-162.64 451.19,-159.97 445.02,-158.46 445.42,-162.64"/>
</g>
<!-- src/layouts/index.ts -->
<g id="node22" class="node">
<title>src/layouts/index.ts</title>
<g id="a_node22"><a xlink:href="src/layouts/index.ts" xlink:title="index.ts">
<path fill="#ddfeff" stroke="black" d="M83,-1207.84C83,-1207.84 41,-1207.84 41,-1207.84 38,-1207.84 35,-1204.84 35,-1201.84 35,-1201.84 35,-1195.84 35,-1195.84 35,-1192.84 38,-1189.84 41,-1189.84 41,-1189.84 83,-1189.84 83,-1189.84 86,-1189.84 89,-1192.84 89,-1195.84 89,-1195.84 89,-1201.84 89,-1201.84 89,-1204.84 86,-1207.84 83,-1207.84"/>
<text text-anchor="start" x="46" y="-1196.64" font-family="Helvetica,sans-Serif" font-size="9.00">index.ts</text>
</a>
</g>
</g>
<!-- src/layouts/index.ts&#45;&gt;src/layouts/Layout.tsx -->
<g id="edge21" class="edge">
<title>src/layouts/index.ts&#45;&gt;src/layouts/Layout.tsx</title>
<path fill="none" stroke="#000000" stroke-width="2" stroke-opacity="0.200000" d="M89.41,-1198.84C107.56,-1198.84 131.91,-1198.84 151.98,-1198.84"/>
<polygon fill="#000000" fill-opacity="0.200000" stroke="#000000" stroke-width="2" stroke-opacity="0.200000" points="151.84,-1200.94 157.84,-1198.84 151.84,-1196.74 151.84,-1200.94"/>
</g>
<!-- src/lib/auth/AuthContext.tsx -->
<g id="node23" class="node">
<title>src/lib/auth/AuthContext.tsx</title>
<g id="a_node23"><a xlink:href="src/lib/auth/AuthContext.tsx" xlink:title="AuthContext.tsx">
<path fill="#bbfeff" stroke="black" d="M377,-934.84C377,-934.84 309,-934.84 309,-934.84 306,-934.84 303,-931.84 303,-928.84 303,-928.84 303,-922.84 303,-922.84 303,-919.84 306,-916.84 309,-916.84 309,-916.84 377,-916.84 377,-916.84 380,-916.84 383,-919.84 383,-922.84 383,-922.84 383,-928.84 383,-928.84 383,-931.84 380,-934.84 377,-934.84"/>
<text text-anchor="start" x="311" y="-923.64" font-family="Helvetica,sans-Serif" font-size="9.00">AuthContext.tsx</text>
</a>
</g>
</g>
<!-- src/lib/auth/AuthProvider.tsx -->
<g id="node24" class="node">
<title>src/lib/auth/AuthProvider.tsx</title>
<g id="a_node24"><a xlink:href="src/lib/auth/AuthProvider.tsx" xlink:title="AuthProvider.tsx">
<path fill="#bbfeff" stroke="black" d="M225.5,-957.84C225.5,-957.84 154.5,-957.84 154.5,-957.84 151.5,-957.84 148.5,-954.84 148.5,-951.84 148.5,-951.84 148.5,-945.84 148.5,-945.84 148.5,-942.84 151.5,-939.84 154.5,-939.84 154.5,-939.84 225.5,-939.84 225.5,-939.84 228.5,-939.84 231.5,-942.84 231.5,-945.84 231.5,-945.84 231.5,-951.84 231.5,-951.84 231.5,-954.84 228.5,-957.84 225.5,-957.84"/>
<text text-anchor="start" x="156.5" y="-946.64" font-family="Helvetica,sans-Serif" font-size="9.00">AuthProvider.tsx</text>
</a>
</g>
</g>
<!-- src/lib/auth/AuthProvider.tsx&#45;&gt;@/lib/dataAccess -->
<g id="edge24" class="edge">
<title>src/lib/auth/AuthProvider.tsx&#45;&gt;@/lib/dataAccess</title>
<path fill="none" stroke="#000000" stroke-width="2" stroke-opacity="0.200000" d="M231.8,-951.73C247.6,-950.55 264.4,-946.02 275,-933.84 282.7,-924.99 281.14,-734.42 283,-722.84 313.54,-532.85 365.43,-495.56 403,-306.84 406.1,-291.27 400.35,-247.62 411,-235.84 418.51,-227.53 429.43,-223.23 440.4,-221.14"/>
<polygon fill="#000000" fill-opacity="0.200000" stroke="#000000" stroke-width="2" stroke-opacity="0.200000" points="440.5,-223.24 446.14,-220.32 439.91,-219.08 440.5,-223.24"/>
</g>
<!-- src/lib/auth/AuthProvider.tsx&#45;&gt;src/lib/auth/AuthContext.tsx -->
<g id="edge22" class="edge">
<title>src/lib/auth/AuthProvider.tsx&#45;&gt;src/lib/auth/AuthContext.tsx</title>
<path fill="none" stroke="#000000" stroke-width="2" stroke-opacity="0.200000" d="M231.86,-942.62C251.04,-939.7 274.01,-936.2 294.01,-933.15"/>
<polygon fill="#000000" fill-opacity="0.200000" stroke="#000000" stroke-width="2" stroke-opacity="0.200000" points="294.06,-935.27 299.68,-932.29 293.43,-931.11 294.06,-935.27"/>
</g>
<!-- src/lib/auth/useFetchToken.ts -->
<g id="node25" class="node">
<title>src/lib/auth/useFetchToken.ts</title>
<g id="a_node25"><a xlink:href="src/lib/auth/useFetchToken.ts" xlink:title="useFetchToken.ts">
<path fill="#ddfeff" stroke="black" d="M381,-967.84C381,-967.84 305,-967.84 305,-967.84 302,-967.84 299,-964.84 299,-961.84 299,-961.84 299,-955.84 299,-955.84 299,-952.84 302,-949.84 305,-949.84 305,-949.84 381,-949.84 381,-949.84 384,-949.84 387,-952.84 387,-955.84 387,-955.84 387,-961.84 387,-961.84 387,-964.84 384,-967.84 381,-967.84"/>
<text text-anchor="start" x="307" y="-956.64" font-family="Helvetica,sans-Serif" font-size="9.00">useFetchToken.ts</text>
</a>
</g>
</g>
<!-- src/lib/auth/AuthProvider.tsx&#45;&gt;src/lib/auth/useFetchToken.ts -->
<g id="edge23" class="edge">
<title>src/lib/auth/AuthProvider.tsx&#45;&gt;src/lib/auth/useFetchToken.ts</title>
<path fill="none" stroke="#000000" stroke-width="2" stroke-opacity="0.200000" d="M231.86,-951.55C249.73,-952.73 270.91,-954.13 289.89,-955.39"/>
<polygon fill="#000000" fill-opacity="0.200000" stroke="#000000" stroke-width="2" stroke-opacity="0.200000" points="289.58,-957.47 295.71,-955.77 289.86,-953.28 289.58,-957.47"/>
</g>
<!-- src/lib/auth/index.ts -->
<g id="node26" class="node">
<title>src/lib/auth/index.ts</title>
<g id="a_node26"><a xlink:href="src/lib/auth/index.ts" xlink:title="index.ts">
<path fill="#ddfeff" stroke="black" d="M83,-957.84C83,-957.84 41,-957.84 41,-957.84 38,-957.84 35,-954.84 35,-951.84 35,-951.84 35,-945.84 35,-945.84 35,-942.84 38,-939.84 41,-939.84 41,-939.84 83,-939.84 83,-939.84 86,-939.84 89,-942.84 89,-945.84 89,-945.84 89,-951.84 89,-951.84 89,-954.84 86,-957.84 83,-957.84"/>
<text text-anchor="start" x="46" y="-946.64" font-family="Helvetica,sans-Serif" font-size="9.00">index.ts</text>
</a>
</g>
</g>
<!-- src/lib/auth/index.ts&#45;&gt;src/lib/auth/AuthProvider.tsx -->
<g id="edge25" class="edge">
<title>src/lib/auth/index.ts&#45;&gt;src/lib/auth/AuthProvider.tsx</title>
<path fill="none" stroke="#000000" stroke-width="2" stroke-opacity="0.200000" d="M89.41,-948.84C103.92,-948.84 122.38,-948.84 139.45,-948.84"/>
<polygon fill="#000000" fill-opacity="0.200000" stroke="#000000" stroke-width="2" stroke-opacity="0.200000" points="139.2,-950.94 145.2,-948.84 139.2,-946.74 139.2,-950.94"/>
</g>
<!-- src/lib/auth/index.ts&#45;&gt;src/lib/auth/useFetchToken.ts -->
<g id="edge27" class="edge">
<title>src/lib/auth/index.ts&#45;&gt;src/lib/auth/useFetchToken.ts</title>
<path fill="none" stroke="#000000" stroke-width="2" stroke-opacity="0.200000" d="M89.4,-958.32C96.93,-960.6 105.2,-962.69 113,-963.84 173.25,-972.68 243.36,-969.16 289.97,-964.9"/>
<polygon fill="#000000" fill-opacity="0.200000" stroke="#000000" stroke-width="2" stroke-opacity="0.200000" points="289.9,-967.01 295.67,-964.35 289.5,-962.83 289.9,-967.01"/>
</g>
<!-- src/lib/auth/useAuth.ts -->
<g id="node27" class="node">
<title>src/lib/auth/useAuth.ts</title>
<g id="a_node27"><a xlink:href="src/lib/auth/useAuth.ts" xlink:title="useAuth.ts">
<path fill="#ddfeff" stroke="black" d="M213.5,-927.84C213.5,-927.84 166.5,-927.84 166.5,-927.84 163.5,-927.84 160.5,-924.84 160.5,-921.84 160.5,-921.84 160.5,-915.84 160.5,-915.84 160.5,-912.84 163.5,-909.84 166.5,-909.84 166.5,-909.84 213.5,-909.84 213.5,-909.84 216.5,-909.84 219.5,-912.84 219.5,-915.84 219.5,-915.84 219.5,-921.84 219.5,-921.84 219.5,-924.84 216.5,-927.84 213.5,-927.84"/>
<text text-anchor="start" x="168.5" y="-916.64" font-family="Helvetica,sans-Serif" font-size="9.00">useAuth.ts</text>
</a>
</g>
</g>
<!-- src/lib/auth/index.ts&#45;&gt;src/lib/auth/useAuth.ts -->
<g id="edge26" class="edge">
<title>src/lib/auth/index.ts&#45;&gt;src/lib/auth/useAuth.ts</title>
<path fill="none" stroke="#000000" stroke-width="2" stroke-opacity="0.200000" d="M89.34,-940.42C96.93,-938.13 105.26,-935.76 113,-933.84 125.5,-930.74 139.28,-927.86 151.64,-925.47"/>
<polygon fill="#000000" fill-opacity="0.200000" stroke="#000000" stroke-width="2" stroke-opacity="0.200000" points="151.87,-927.56 157.37,-924.38 151.08,-923.44 151.87,-927.56"/>
</g>
<!-- src/lib/auth/useAuth.ts&#45;&gt;src/lib/auth/AuthContext.tsx -->
<g id="edge28" class="edge">
<title>src/lib/auth/useAuth.ts&#45;&gt;src/lib/auth/AuthContext.tsx</title>
<path fill="none" stroke="#000000" stroke-width="2" stroke-opacity="0.200000" d="M219.76,-920.17C240.64,-921.14 269.38,-922.47 293.76,-923.6"/>
<polygon fill="#000000" fill-opacity="0.200000" stroke="#000000" stroke-width="2" stroke-opacity="0.200000" points="293.4,-925.69 299.49,-923.87 293.59,-921.49 293.4,-925.69"/>
</g>
<!-- src/lib/dataAccess/index.ts -->
<g id="node28" class="node">
<title>src/lib/dataAccess/index.ts</title>
<g id="a_node28"><a xlink:href="src/lib/dataAccess/index.ts" xlink:title="index.ts">
<path fill="#ddfeff" stroke="black" d="M83,-661.84C83,-661.84 41,-661.84 41,-661.84 38,-661.84 35,-658.84 35,-655.84 35,-655.84 35,-649.84 35,-649.84 35,-646.84 38,-643.84 41,-643.84 41,-643.84 83,-643.84 83,-643.84 86,-643.84 89,-646.84 89,-649.84 89,-649.84 89,-655.84 89,-655.84 89,-658.84 86,-661.84 83,-661.84"/>
<text text-anchor="start" x="46" y="-650.64" font-family="Helvetica,sans-Serif" font-size="9.00">index.ts</text>
</a>
</g>
</g>
<!-- src/lib/dataAccess/index.ts&#45;&gt;generated -->
<g id="edge29" class="edge">
<title>src/lib/dataAccess/index.ts&#45;&gt;generated</title>
<path fill="none" stroke="#000000" stroke-width="2" stroke-opacity="0.200000" d="M86.69,-643.46C91.93,-640.25 96.86,-636.1 100,-630.84 117.45,-601.62 91.98,-351.6 113,-324.84 122.2,-313.12 137.26,-307.38 151.55,-304.66"/>
<polygon fill="#000000" fill-opacity="0.200000" stroke="#000000" stroke-width="2" stroke-opacity="0.200000" points="151.68,-306.77 157.29,-303.79 151.04,-302.61 151.68,-306.77"/>
</g>
<!-- src/lib/dataAccess/initAxios.ts -->
<g id="node29" class="node">
<title>src/lib/dataAccess/initAxios.ts</title>
<g id="a_node29"><a xlink:href="src/lib/dataAccess/initAxios.ts" xlink:title="initAxios.ts">
<path fill="#ddfeff" stroke="black" d="M214,-661.84C214,-661.84 166,-661.84 166,-661.84 163,-661.84 160,-658.84 160,-655.84 160,-655.84 160,-649.84 160,-649.84 160,-646.84 163,-643.84 166,-643.84 166,-643.84 214,-643.84 214,-643.84 217,-643.84 220,-646.84 220,-649.84 220,-649.84 220,-655.84 220,-655.84 220,-658.84 217,-661.84 214,-661.84"/>
<text text-anchor="start" x="168" y="-650.64" font-family="Helvetica,sans-Serif" font-size="9.00">initAxios.ts</text>
</a>
</g>
</g>
<!-- src/lib/dataAccess/index.ts&#45;&gt;src/lib/dataAccess/initAxios.ts -->
<g id="edge30" class="edge">
<title>src/lib/dataAccess/index.ts&#45;&gt;src/lib/dataAccess/initAxios.ts</title>
<path fill="none" stroke="#000000" stroke-width="2" stroke-opacity="0.200000" d="M89.41,-652.84C107.19,-652.84 130.9,-652.84 150.73,-652.84"/>
<polygon fill="#000000" fill-opacity="0.200000" stroke="#000000" stroke-width="2" stroke-opacity="0.200000" points="150.51,-654.94 156.51,-652.84 150.51,-650.74 150.51,-654.94"/>
</g>
<!-- src/lib/pageUtils/getApplicationServerSideProps.ts -->
<g id="node30" class="node">
<title>src/lib/pageUtils/getApplicationServerSideProps.ts</title>
<g id="a_node30"><a xlink:href="src/lib/pageUtils/getApplicationServerSideProps.ts" xlink:title="getApplicationServerSideProps.ts">
<path fill="#ddfeff" stroke="black" d="M261,-601.84C261,-601.84 119,-601.84 119,-601.84 116,-601.84 113,-598.84 113,-595.84 113,-595.84 113,-589.84 113,-589.84 113,-586.84 116,-583.84 119,-583.84 119,-583.84 261,-583.84 261,-583.84 264,-583.84 267,-586.84 267,-589.84 267,-589.84 267,-595.84 267,-595.84 267,-598.84 264,-601.84 261,-601.84"/>
<text text-anchor="start" x="121" y="-590.64" font-family="Helvetica,sans-Serif" font-size="9.00">getApplicationServerSideProps.ts</text>
</a>
</g>
</g>
<!-- src/lib/pageUtils/index.ts -->
<g id="node31" class="node">
<title>src/lib/pageUtils/index.ts</title>
<g id="a_node31"><a xlink:href="src/lib/pageUtils/index.ts" xlink:title="index.ts">
<path fill="#ddfeff" stroke="black" d="M83,-601.84C83,-601.84 41,-601.84 41,-601.84 38,-601.84 35,-598.84 35,-595.84 35,-595.84 35,-589.84 35,-589.84 35,-586.84 38,-583.84 41,-583.84 41,-583.84 83,-583.84 83,-583.84 86,-583.84 89,-586.84 89,-589.84 89,-589.84 89,-595.84 89,-595.84 89,-598.84 86,-601.84 83,-601.84"/>
<text text-anchor="start" x="46" y="-590.64" font-family="Helvetica,sans-Serif" font-size="9.00">index.ts</text>
</a>
</g>
</g>
<!-- src/lib/pageUtils/index.ts&#45;&gt;src/lib/pageUtils/getApplicationServerSideProps.ts -->
<g id="edge31" class="edge">
<title>src/lib/pageUtils/index.ts&#45;&gt;src/lib/pageUtils/getApplicationServerSideProps.ts</title>
<path fill="none" stroke="#000000" stroke-width="2" stroke-opacity="0.200000" d="M89.41,-592.84C93.9,-592.84 98.76,-592.84 103.84,-592.84"/>
<polygon fill="#000000" fill-opacity="0.200000" stroke="#000000" stroke-width="2" stroke-opacity="0.200000" points="103.55,-594.94 109.55,-592.84 103.55,-590.74 103.55,-594.94"/>
</g>
<!-- src/lib/ui/index.ts -->
<g id="node32" class="node">
<title>src/lib/ui/index.ts</title>
<g id="a_node32"><a xlink:href="src/lib/ui/index.ts" xlink:title="index.ts">
<path fill="#ddfeff" stroke="black" d="M83,-833.84C83,-833.84 41,-833.84 41,-833.84 38,-833.84 35,-830.84 35,-827.84 35,-827.84 35,-821.84 35,-821.84 35,-818.84 38,-815.84 41,-815.84 41,-815.84 83,-815.84 83,-815.84 86,-815.84 89,-818.84 89,-821.84 89,-821.84 89,-827.84 89,-827.84 89,-830.84 86,-833.84 83,-833.84"/>
<text text-anchor="start" x="46" y="-822.64" font-family="Helvetica,sans-Serif" font-size="9.00">index.ts</text>
</a>
</g>
</g>
<!-- src/lib/ui/system/Box.tsx -->
<g id="node33" class="node">
<title>src/lib/ui/system/Box.tsx</title>
<g id="a_node33"><a xlink:href="src/lib/ui/system/Box.tsx" xlink:title="Box.tsx">
<path fill="#bbfeff" stroke="black" d="M364,-751.84C364,-751.84 322,-751.84 322,-751.84 319,-751.84 316,-748.84 316,-745.84 316,-745.84 316,-739.84 316,-739.84 316,-736.84 319,-733.84 322,-733.84 322,-733.84 364,-733.84 364,-733.84 367,-733.84 370,-736.84 370,-739.84 370,-739.84 370,-745.84 370,-745.84 370,-748.84 367,-751.84 364,-751.84"/>
<text text-anchor="start" x="328" y="-740.64" font-family="Helvetica,sans-Serif" font-size="9.00">Box.tsx</text>
</a>
</g>
</g>
<!-- src/lib/ui/index.ts&#45;&gt;src/lib/ui/system/Box.tsx -->
<g id="edge32" class="edge">
<title>src/lib/ui/index.ts&#45;&gt;src/lib/ui/system/Box.tsx</title>
<path fill="none" stroke="#000000" stroke-width="2" stroke-opacity="0.200000" d="M89.45,-825.97C143.25,-827.99 261.54,-830.99 275,-818.84 295.3,-800.52 264.84,-778.29 283,-757.84 289.17,-750.89 298.06,-746.95 307.07,-744.76"/>
<polygon fill="#000000" fill-opacity="0.200000" stroke="#000000" stroke-width="2" stroke-opacity="0.200000" points="307.18,-746.88 312.69,-743.72 306.41,-742.75 307.18,-746.88"/>
</g>
<!-- src/lib/ui/system/Grid.tsx -->
<g id="node34" class="node">
<title>src/lib/ui/system/Grid.tsx</title>
<g id="a_node34"><a xlink:href="src/lib/ui/system/Grid.tsx" xlink:title="Grid.tsx">
<path fill="#bbfeff" stroke="black" d="M364,-811.84C364,-811.84 322,-811.84 322,-811.84 319,-811.84 316,-808.84 316,-805.84 316,-805.84 316,-799.84 316,-799.84 316,-796.84 319,-793.84 322,-793.84 322,-793.84 364,-793.84 364,-793.84 367,-793.84 370,-796.84 370,-799.84 370,-799.84 370,-805.84 370,-805.84 370,-808.84 367,-811.84 364,-811.84"/>
<text text-anchor="start" x="327.5" y="-800.64" font-family="Helvetica,sans-Serif" font-size="9.00">Grid.tsx</text>
</a>
</g>
</g>
<!-- src/lib/ui/index.ts&#45;&gt;src/lib/ui/system/Grid.tsx -->
<g id="edge33" class="edge">
<title>src/lib/ui/index.ts&#45;&gt;src/lib/ui/system/Grid.tsx</title>
<path fill="none" stroke="#000000" stroke-width="2" stroke-opacity="0.200000" d="M83.97,-834.21C92.75,-837.66 103.18,-841.13 113,-842.84 148.46,-849.03 245.92,-864.06 275,-842.84 284.42,-835.96 274.5,-825.83 283,-817.84 289.58,-811.65 298.35,-807.92 307.1,-805.7"/>
<polygon fill="#000000" fill-opacity="0.200000" stroke="#000000" stroke-width="2" stroke-opacity="0.200000" points="307.35,-807.79 312.81,-804.54 306.51,-803.67 307.35,-807.79"/>
</g>
<!-- src/lib/ui/system/Stack.tsx -->
<g id="node35" class="node">
<title>src/lib/ui/system/Stack.tsx</title>
<g id="a_node35"><a xlink:href="src/lib/ui/system/Stack.tsx" xlink:title="Stack.tsx">
<path fill="#bbfeff" stroke="black" d="M364,-841.84C364,-841.84 322,-841.84 322,-841.84 319,-841.84 316,-838.84 316,-835.84 316,-835.84 316,-829.84 316,-829.84 316,-826.84 319,-823.84 322,-823.84 322,-823.84 364,-823.84 364,-823.84 367,-823.84 370,-826.84 370,-829.84 370,-829.84 370,-835.84 370,-835.84 370,-838.84 367,-841.84 364,-841.84"/>
<text text-anchor="start" x="324.5" y="-830.64" font-family="Helvetica,sans-Serif" font-size="9.00">Stack.tsx</text>
</a>
</g>
</g>
<!-- src/lib/ui/index.ts&#45;&gt;src/lib/ui/system/Stack.tsx -->
<g id="edge34" class="edge">
<title>src/lib/ui/index.ts&#45;&gt;src/lib/ui/system/Stack.tsx</title>
<path fill="none" stroke="#000000" stroke-width="2" stroke-opacity="0.200000" d="M73.61,-834.21C83.16,-841.98 97.97,-852.44 113,-856.84 182.1,-877.06 204.06,-869.16 275,-856.84 287.93,-854.59 301.67,-850.08 313.31,-845.57"/>
<polygon fill="#000000" fill-opacity="0.200000" stroke="#000000" stroke-width="2" stroke-opacity="0.200000" points="313.79,-847.64 318.57,-843.44 312.22,-843.74 313.79,-847.64"/>
</g>
<!-- src/lib/ui/system/theme.ts -->
<g id="node36" class="node">
<title>src/lib/ui/system/theme.ts</title>
<g id="a_node36"><a xlink:href="src/lib/ui/system/theme.ts" xlink:title="theme.ts">
<path fill="#ddfeff" stroke="black" d="M364,-781.84C364,-781.84 322,-781.84 322,-781.84 319,-781.84 316,-778.84 316,-775.84 316,-775.84 316,-769.84 316,-769.84 316,-766.84 319,-763.84 322,-763.84 322,-763.84 364,-763.84 364,-763.84 367,-763.84 370,-766.84 370,-769.84 370,-769.84 370,-775.84 370,-775.84 370,-778.84 367,-781.84 364,-781.84"/>
<text text-anchor="start" x="325.5" y="-770.64" font-family="Helvetica,sans-Serif" font-size="9.00">theme.ts</text>
</a>
</g>
</g>
<!-- src/lib/ui/index.ts&#45;&gt;src/lib/ui/system/theme.ts -->
<g id="edge35" class="edge">
<title>src/lib/ui/index.ts&#45;&gt;src/lib/ui/system/theme.ts</title>
<path fill="none" stroke="#000000" stroke-width="2" stroke-opacity="0.200000" d="M89.43,-829.42C139.9,-837.54 247.44,-851.54 275,-828.84 289.33,-817.04 270.25,-801.33 283,-787.84 289.26,-781.22 298,-777.35 306.84,-775.14"/>
<polygon fill="#000000" fill-opacity="0.200000" stroke="#000000" stroke-width="2" stroke-opacity="0.200000" points="307.16,-777.22 312.65,-774.02 306.36,-773.1 307.16,-777.22"/>
</g>
<!-- src/lib/ui/uitpas/Card.tsx -->
<g id="node37" class="node">
<title>src/lib/ui/uitpas/Card.tsx</title>
<g id="a_node37"><a xlink:href="src/lib/ui/uitpas/Card.tsx" xlink:title="Card.tsx">
<path fill="#bbfeff" stroke="black" d="M211,-789.84C211,-789.84 169,-789.84 169,-789.84 166,-789.84 163,-786.84 163,-783.84 163,-783.84 163,-777.84 163,-777.84 163,-774.84 166,-771.84 169,-771.84 169,-771.84 211,-771.84 211,-771.84 214,-771.84 217,-774.84 217,-777.84 217,-777.84 217,-783.84 217,-783.84 217,-786.84 214,-789.84 211,-789.84"/>
<text text-anchor="start" x="173" y="-778.64" font-family="Helvetica,sans-Serif" font-size="9.00">Card.tsx</text>
</a>
</g>
</g>
<!-- src/lib/ui/index.ts&#45;&gt;src/lib/ui/uitpas/Card.tsx -->
<g id="edge36" class="edge">
<title>src/lib/ui/index.ts&#45;&gt;src/lib/ui/uitpas/Card.tsx</title>
<path fill="none" stroke="#000000" stroke-width="2" stroke-opacity="0.200000" d="M75.04,-815.51C84.75,-808.46 99.06,-799.12 113,-793.84 125.92,-788.95 140.77,-785.88 153.9,-783.97"/>
<polygon fill="#000000" fill-opacity="0.200000" stroke="#000000" stroke-width="2" stroke-opacity="0.200000" points="153.99,-786.08 159.66,-783.22 153.44,-781.92 153.99,-786.08"/>
</g>
<!-- src/lib/ui/uitpas/Link.tsx -->
<g id="node38" class="node">
<title>src/lib/ui/uitpas/Link.tsx</title>
<g id="a_node38"><a xlink:href="src/lib/ui/uitpas/Link.tsx" xlink:title="Link.tsx">
<path fill="#bbfeff" stroke="black" d="M211,-759.84C211,-759.84 169,-759.84 169,-759.84 166,-759.84 163,-756.84 163,-753.84 163,-753.84 163,-747.84 163,-747.84 163,-744.84 166,-741.84 169,-741.84 169,-741.84 211,-741.84 211,-741.84 214,-741.84 217,-744.84 217,-747.84 217,-747.84 217,-753.84 217,-753.84 217,-756.84 214,-759.84 211,-759.84"/>
<text text-anchor="start" x="174.5" y="-748.64" font-family="Helvetica,sans-Serif" font-size="9.00">Link.tsx</text>
</a>
</g>
</g>
<!-- src/lib/ui/index.ts&#45;&gt;src/lib/ui/uitpas/Link.tsx -->
<g id="edge37" class="edge">
<title>src/lib/ui/index.ts&#45;&gt;src/lib/ui/uitpas/Link.tsx</title>
<path fill="none" stroke="#000000" stroke-width="2" stroke-opacity="0.200000" d="M68.09,-815.57C75.91,-802.28 92.16,-778.08 113,-765.84 125.36,-758.57 140.62,-754.76 154.2,-752.78"/>
<polygon fill="#000000" fill-opacity="0.200000" stroke="#000000" stroke-width="2" stroke-opacity="0.200000" points="154.14,-754.9 159.84,-752.09 153.63,-750.73 154.14,-754.9"/>
</g>
<!-- src/lib/ui/uitpas/Typography.tsx -->
<g id="node39" class="node">
<title>src/lib/ui/uitpas/Typography.tsx</title>
<g id="a_node39"><a xlink:href="src/lib/ui/uitpas/Typography.tsx" xlink:title="Typography.tsx">
<path fill="#bbfeff" stroke="black" d="M223.5,-729.84C223.5,-729.84 156.5,-729.84 156.5,-729.84 153.5,-729.84 150.5,-726.84 150.5,-723.84 150.5,-723.84 150.5,-717.84 150.5,-717.84 150.5,-714.84 153.5,-711.84 156.5,-711.84 156.5,-711.84 223.5,-711.84 223.5,-711.84 226.5,-711.84 229.5,-714.84 229.5,-717.84 229.5,-717.84 229.5,-723.84 229.5,-723.84 229.5,-726.84 226.5,-729.84 223.5,-729.84"/>
<text text-anchor="start" x="158.5" y="-718.64" font-family="Helvetica,sans-Serif" font-size="9.00">Typography.tsx</text>
</a>
</g>
</g>
<!-- src/lib/ui/index.ts&#45;&gt;src/lib/ui/uitpas/Typography.tsx -->
<g id="edge38" class="edge">
<title>src/lib/ui/index.ts&#45;&gt;src/lib/ui/uitpas/Typography.tsx</title>
<path fill="none" stroke="#000000" stroke-width="2" stroke-opacity="0.200000" d="M65.4,-815.54C70.65,-797.14 85.01,-756.11 113,-735.84 121.26,-729.86 131.28,-726.11 141.31,-723.78"/>
<polygon fill="#000000" fill-opacity="0.200000" stroke="#000000" stroke-width="2" stroke-opacity="0.200000" points="141.62,-725.86 147.11,-722.67 140.82,-721.74 141.62,-725.86"/>
</g>
<!-- src/lib/ui/uitpas/Typography.tsx&#45;&gt;@/lib/ui -->
<g id="edge40" class="edge">
<title>src/lib/ui/uitpas/Typography.tsx&#45;&gt;@/lib/ui</title>
<path fill="none" stroke="#000000" stroke-width="2" stroke-opacity="0.200000" d="M229.92,-716.73C246.61,-712.83 264.61,-705.31 275,-690.84 289.78,-670.26 267.39,-254.8 283,-234.84 317.01,-191.37 363.44,-241.33 403,-202.84 411.97,-194.11 401.82,-184.35 411,-175.84 420.25,-167.26 433.19,-163.14 445.4,-161.29"/>
<polygon fill="#000000" fill-opacity="0.200000" stroke="#000000" stroke-width="2" stroke-opacity="0.200000" points="445.36,-163.41 451.09,-160.65 444.89,-159.23 445.36,-163.41"/>
</g>
<!-- src/lib/ui/uitpas/Typography.tsx&#45;&gt;src/lib/ui/system/Box.tsx -->
<g id="edge39" class="edge">
<title>src/lib/ui/uitpas/Typography.tsx&#45;&gt;src/lib/ui/system/Box.tsx</title>
<path fill="none" stroke="#000000" stroke-width="2" stroke-opacity="0.200000" d="M229.89,-726.51C253.65,-729.97 283.79,-734.36 306.84,-737.72"/>
<polygon fill="#000000" fill-opacity="0.200000" stroke="#000000" stroke-width="2" stroke-opacity="0.200000" points="306.37,-739.77 312.61,-738.56 306.98,-735.61 306.37,-739.77"/>
</g>
<!-- src/lib/utils/hooks/index.ts -->
<g id="node40" class="node">
<title>src/lib/utils/hooks/index.ts</title>
<g id="a_node40"><a xlink:href="src/lib/utils/hooks/index.ts" xlink:title="index.ts">
<path fill="#ddfeff" stroke="black" d="M211,-1039.84C211,-1039.84 169,-1039.84 169,-1039.84 166,-1039.84 163,-1036.84 163,-1033.84 163,-1033.84 163,-1027.84 163,-1027.84 163,-1024.84 166,-1021.84 169,-1021.84 169,-1021.84 211,-1021.84 211,-1021.84 214,-1021.84 217,-1024.84 217,-1027.84 217,-1027.84 217,-1033.84 217,-1033.84 217,-1036.84 214,-1039.84 211,-1039.84"/>
<text text-anchor="start" x="174" y="-1028.64" font-family="Helvetica,sans-Serif" font-size="9.00">index.ts</text>
</a>
</g>
</g>
<!-- src/lib/utils/hooks/useIsClient.ts -->
<g id="node41" class="node">
<title>src/lib/utils/hooks/useIsClient.ts</title>
<g id="a_node41"><a xlink:href="src/lib/utils/hooks/useIsClient.ts" xlink:title="useIsClient.ts">
<path fill="#ddfeff" stroke="black" d="M372.5,-1039.84C372.5,-1039.84 313.5,-1039.84 313.5,-1039.84 310.5,-1039.84 307.5,-1036.84 307.5,-1033.84 307.5,-1033.84 307.5,-1027.84 307.5,-1027.84 307.5,-1024.84 310.5,-1021.84 313.5,-1021.84 313.5,-1021.84 372.5,-1021.84 372.5,-1021.84 375.5,-1021.84 378.5,-1024.84 378.5,-1027.84 378.5,-1027.84 378.5,-1033.84 378.5,-1033.84 378.5,-1036.84 375.5,-1039.84 372.5,-1039.84"/>
<text text-anchor="start" x="315.5" y="-1028.64" font-family="Helvetica,sans-Serif" font-size="9.00">useIsClient.ts</text>
</a>
</g>
</g>
<!-- src/lib/utils/hooks/index.ts&#45;&gt;src/lib/utils/hooks/useIsClient.ts -->
<g id="edge41" class="edge">
<title>src/lib/utils/hooks/index.ts&#45;&gt;src/lib/utils/hooks/useIsClient.ts</title>
<path fill="none" stroke="#000000" stroke-width="2" stroke-opacity="0.200000" d="M217.3,-1030.84C239.6,-1030.84 272.04,-1030.84 298.24,-1030.84"/>
<polygon fill="#000000" fill-opacity="0.200000" stroke="#000000" stroke-width="2" stroke-opacity="0.200000" points="298.19,-1032.94 304.19,-1030.84 298.19,-1028.74 298.19,-1032.94"/>
</g>
<!-- src/lib/utils/index.ts -->
<g id="node42" class="node">
<title>src/lib/utils/index.ts</title>
<g id="a_node42"><a xlink:href="src/lib/utils/index.ts" xlink:title="index.ts">
<path fill="#ddfeff" stroke="black" d="M83,-1091.84C83,-1091.84 41,-1091.84 41,-1091.84 38,-1091.84 35,-1088.84 35,-1085.84 35,-1085.84 35,-1079.84 35,-1079.84 35,-1076.84 38,-1073.84 41,-1073.84 41,-1073.84 83,-1073.84 83,-1073.84 86,-1073.84 89,-1076.84 89,-1079.84 89,-1079.84 89,-1085.84 89,-1085.84 89,-1088.84 86,-1091.84 83,-1091.84"/>
<text text-anchor="start" x="46" y="-1080.64" font-family="Helvetica,sans-Serif" font-size="9.00">index.ts</text>
</a>
</g>
</g>
<!-- src/lib/utils/index.ts&#45;&gt;src/lib/utils/hooks/index.ts -->
<g id="edge42" class="edge">
<title>src/lib/utils/index.ts&#45;&gt;src/lib/utils/hooks/index.ts</title>
<path fill="none" stroke="#000000" stroke-width="2" stroke-opacity="0.200000" d="M72.02,-1073.5C81.38,-1064.41 96.89,-1050.96 113,-1043.84 125.73,-1038.22 140.67,-1035.01 153.91,-1033.2"/>
<polygon fill="#000000" fill-opacity="0.200000" stroke="#000000" stroke-width="2" stroke-opacity="0.200000" points="154.04,-1035.3 159.75,-1032.5 153.54,-1031.13 154.04,-1035.3"/>
</g>
<!-- src/lib/utils/isClient.ts -->
<g id="node43" class="node">
<title>src/lib/utils/isClient.ts</title>
<g id="a_node43"><a xlink:href="src/lib/utils/isClient.ts" xlink:title="isClient.ts">
<path fill="#ddfeff" stroke="black" d="M212,-1091.84C212,-1091.84 168,-1091.84 168,-1091.84 165,-1091.84 162,-1088.84 162,-1085.84 162,-1085.84 162,-1079.84 162,-1079.84 162,-1076.84 165,-1073.84 168,-1073.84 168,-1073.84 212,-1073.84 212,-1073.84 215,-1073.84 218,-1076.84 218,-1079.84 218,-1079.84 218,-1085.84 218,-1085.84 218,-1088.84 215,-1091.84 212,-1091.84"/>
<text text-anchor="start" x="170" y="-1080.64" font-family="Helvetica,sans-Serif" font-size="9.00">isClient.ts</text>
</a>
</g>
</g>
<!-- src/lib/utils/index.ts&#45;&gt;src/lib/utils/isClient.ts -->
<g id="edge43" class="edge">
<title>src/lib/utils/index.ts&#45;&gt;src/lib/utils/isClient.ts</title>
<path fill="none" stroke="#000000" stroke-width="2" stroke-opacity="0.200000" d="M89.41,-1082.84C107.81,-1082.84 132.58,-1082.84 152.81,-1082.84"/>
<polygon fill="#000000" fill-opacity="0.200000" stroke="#000000" stroke-width="2" stroke-opacity="0.200000" points="152.72,-1084.94 158.72,-1082.84 152.72,-1080.74 152.72,-1084.94"/>
</g>
<!-- src/lib/utils/prefixWhenNotEmpty.ts -->
<g id="node44" class="node">
<title>src/lib/utils/prefixWhenNotEmpty.ts</title>
<g id="a_node44"><a xlink:href="src/lib/utils/prefixWhenNotEmpty.ts" xlink:title="prefixWhenNotEmpty.ts">
<path fill="#ddfeff" stroke="black" d="M240,-1121.84C240,-1121.84 140,-1121.84 140,-1121.84 137,-1121.84 134,-1118.84 134,-1115.84 134,-1115.84 134,-1109.84 134,-1109.84 134,-1106.84 137,-1103.84 140,-1103.84 140,-1103.84 240,-1103.84 240,-1103.84 243,-1103.84 246,-1106.84 246,-1109.84 246,-1109.84 246,-1115.84 246,-1115.84 246,-1118.84 243,-1121.84 240,-1121.84"/>
<text text-anchor="start" x="142" y="-1110.64" font-family="Helvetica,sans-Serif" font-size="9.00">prefixWhenNotEmpty.ts</text>
</a>
</g>
</g>
<!-- src/lib/utils/index.ts&#45;&gt;src/lib/utils/prefixWhenNotEmpty.ts -->
<g id="edge44" class="edge">
<title>src/lib/utils/index.ts&#45;&gt;src/lib/utils/prefixWhenNotEmpty.ts</title>
<path fill="none" stroke="#000000" stroke-width="2" stroke-opacity="0.200000" d="M89.34,-1091.26C96.93,-1093.55 105.26,-1095.92 113,-1097.84 118.14,-1099.11 123.5,-1100.35 128.88,-1101.53"/>
<polygon fill="#000000" fill-opacity="0.200000" stroke="#000000" stroke-width="2" stroke-opacity="0.200000" points="128.07,-1103.51 134.38,-1102.71 128.95,-1099.4 128.07,-1103.51"/>
</g>
<!-- src/pages/[...param].tsx -->
<g id="node45" class="node">
<title>src/pages/[...param].tsx</title>
<g id="a_node45"><a xlink:href="src/pages/[...param].tsx" xlink:title="[...param].tsx">
<path fill="#bbfeff" stroke="black" d="M218,-353.84C218,-353.84 162,-353.84 162,-353.84 159,-353.84 156,-350.84 156,-347.84 156,-347.84 156,-341.84 156,-341.84 156,-338.84 159,-335.84 162,-335.84 162,-335.84 218,-335.84 218,-335.84 221,-335.84 224,-338.84 224,-341.84 224,-341.84 224,-347.84 224,-347.84 224,-350.84 221,-353.84 218,-353.84"/>
<text text-anchor="start" x="164" y="-342.64" font-family="Helvetica,sans-Serif" font-size="9.00">[...param].tsx</text>
</a>
</g>
</g>
<!-- src/pages/[...param].tsx&#45;&gt;@/feature&#45;legacy -->
<g id="edge45" class="edge">
<title>src/pages/[...param].tsx&#45;&gt;@/feature&#45;legacy</title>
<path fill="none" stroke="#000000" stroke-width="2" stroke-opacity="0.200000" d="M224.12,-343.06C242.15,-340.21 263.15,-333.46 275,-317.84 289.31,-298.97 266.28,-121.61 283,-104.84 303.5,-84.28 383.19,-87.4 434.86,-91.89"/>
<polygon fill="#000000" fill-opacity="0.200000" stroke="#000000" stroke-width="2" stroke-opacity="0.200000" points="434.35,-93.95 440.52,-92.4 434.73,-89.77 434.35,-93.95"/>
</g>
<!-- src/pages/[...param].tsx&#45;&gt;@/lib/pageUtils -->
<g id="edge46" class="edge">
<title>src/pages/[...param].tsx&#45;&gt;@/lib/pageUtils</title>
<path fill="none" stroke="#000000" stroke-width="2" stroke-opacity="0.200000" d="M224.33,-342.83C242.21,-339.89 262.97,-333.13 275,-317.84 290.02,-298.75 269.35,-228.93 283,-208.84 316.3,-159.85 351.14,-179.47 403,-150.84 406.67,-148.81 407.11,-147.42 411,-145.84 421.56,-141.55 433.54,-138.41 444.55,-136.14"/>
<polygon fill="#000000" fill-opacity="0.200000" stroke="#000000" stroke-width="2" stroke-opacity="0.200000" points="444.64,-138.26 450.14,-135.07 443.86,-134.13 444.64,-138.26"/>
</g>
<!-- src/pages/_app.tsx -->
<g id="node46" class="node">
<title>src/pages/_app.tsx</title>
<g id="a_node46"><a xlink:href="src/pages/_app.tsx" xlink:title="_app.tsx">
<path fill="#bbfeff" stroke="black" d="M83,-443.84C83,-443.84 41,-443.84 41,-443.84 38,-443.84 35,-440.84 35,-437.84 35,-437.84 35,-431.84 35,-431.84 35,-428.84 38,-425.84 41,-425.84 41,-425.84 83,-425.84 83,-425.84 86,-425.84 89,-428.84 89,-431.84 89,-431.84 89,-437.84 89,-437.84 89,-440.84 86,-443.84 83,-443.84"/>
<text text-anchor="start" x="44.5" y="-432.64" font-family="Helvetica,sans-Serif" font-size="9.00">_app.tsx</text>
</a>
</g>
</g>
<!-- src/pages/_app.tsx&#45;&gt;@/layouts -->
<g id="edge47" class="edge">
<title>src/pages/_app.tsx&#45;&gt;@/layouts</title>
<path fill="none" stroke="#000000" stroke-width="2" stroke-opacity="0.200000" d="M89.13,-428.66C93.37,-426.53 97.26,-423.68 100,-419.84 131.52,-375.63 83.76,-221.6 113,-175.84 184.53,-63.89 367.99,-60.25 445.3,-64.08"/>
<polygon fill="#000000" fill-opacity="0.200000" stroke="#000000" stroke-width="2" stroke-opacity="0.200000" points="445.06,-66.17 451.17,-64.41 445.29,-61.98 445.06,-66.17"/>
</g>
<!-- src/pages/_app.tsx&#45;&gt;@/lib/auth -->
<g id="edge48" class="edge">
<title>src/pages/_app.tsx&#45;&gt;@/lib/auth</title>
<path fill="none" stroke="#000000" stroke-width="2" stroke-opacity="0.200000" d="M89.36,-428.37C93.48,-426.28 97.26,-423.5 100,-419.84 117.65,-396.23 94.01,-310.38 113,-287.84 134.82,-261.95 357.86,-215.23 445.45,-197.72"/>
<polygon fill="#000000" fill-opacity="0.200000" stroke="#000000" stroke-width="2" stroke-opacity="0.200000" points="445.79,-199.79 451.26,-196.56 444.97,-195.67 445.79,-199.79"/>
</g>
<!-- src/pages/_app.tsx&#45;&gt;@/lib/ui -->
<g id="edge49" class="edge">
<title>src/pages/_app.tsx&#45;&gt;@/lib/ui</title>
<path fill="none" stroke="#000000" stroke-width="2" stroke-opacity="0.200000" d="M89.45,-428.44C93.55,-426.33 97.31,-423.54 100,-419.84 124.46,-386.12 85.43,-264.06 113,-232.84 156.66,-183.4 361.96,-167.1 445.25,-162.47"/>
<polygon fill="#000000" fill-opacity="0.200000" stroke="#000000" stroke-width="2" stroke-opacity="0.200000" points="445.19,-164.57 451.07,-162.16 444.97,-160.38 445.19,-164.57"/>
</g>
<!-- src/pages/_document.tsx -->
<g id="node47" class="node">
<title>src/pages/_document.tsx</title>
<g id="a_node47"><a xlink:href="src/pages/_document.tsx" xlink:title="no&#45;orphans">
<path fill="#ccffcc" stroke="orange" d="M94,-413.84C94,-413.84 30,-413.84 30,-413.84 27,-413.84 24,-410.84 24,-407.84 24,-407.84 24,-401.84 24,-401.84 24,-398.84 27,-395.84 30,-395.84 30,-395.84 94,-395.84 94,-395.84 97,-395.84 100,-398.84 100,-401.84 100,-401.84 100,-407.84 100,-407.84 100,-410.84 97,-413.84 94,-413.84"/>
<text text-anchor="start" x="32" y="-402.64" font-family="Helvetica,sans-Serif" font-size="9.00" fill="orange">_document.tsx</text>
</a>
</g>
</g>
<!-- src/pages/api/hello.ts -->
<g id="node48" class="node">
<title>src/pages/api/hello.ts</title>
<g id="a_node48"><a xlink:href="src/pages/api/hello.ts" xlink:title="no&#45;orphans">
<path fill="#ccffcc" stroke="orange" d="M83,-507.84C83,-507.84 41,-507.84 41,-507.84 38,-507.84 35,-504.84 35,-501.84 35,-501.84 35,-495.84 35,-495.84 35,-492.84 38,-489.84 41,-489.84 41,-489.84 83,-489.84 83,-489.84 86,-489.84 89,-492.84 89,-495.84 89,-495.84 89,-501.84 89,-501.84 89,-504.84 86,-507.84 83,-507.84"/>
<text text-anchor="start" x="47" y="-496.64" font-family="Helvetica,sans-Serif" font-size="9.00" fill="orange">hello.ts</text>
</a>
</g>
</g>
<!-- src/pages/counters/index.tsx -->
<g id="node49" class="node">
<title>src/pages/counters/index.tsx</title>
<g id="a_node49"><a xlink:href="src/pages/counters/index.tsx" xlink:title="index.tsx">
<path fill="#bbfeff" stroke="black" d="M83,-361.84C83,-361.84 41,-361.84 41,-361.84 38,-361.84 35,-358.84 35,-355.84 35,-355.84 35,-349.84 35,-349.84 35,-346.84 38,-343.84 41,-343.84 41,-343.84 83,-343.84 83,-343.84 86,-343.84 89,-346.84 89,-349.84 89,-349.84 89,-355.84 89,-355.84 89,-358.84 86,-361.84 83,-361.84"/>
<text text-anchor="start" x="43.5" y="-350.64" font-family="Helvetica,sans-Serif" font-size="9.00">index.tsx</text>
</a>
</g>
</g>
<!-- src/pages/counters/index.tsx&#45;&gt;@/feature&#45;counter -->
<g id="edge50" class="edge">
<title>src/pages/counters/index.tsx&#45;&gt;@/feature&#45;counter</title>
<path fill="none" stroke="#000000" stroke-width="2" stroke-opacity="0.200000" d="M63.06,-343.39C63.54,-296.82 68.22,-92.48 113,-52.84 206.05,29.53 369.98,-4.08 443.27,-24.94"/>
<polygon fill="#000000" fill-opacity="0.200000" stroke="#000000" stroke-width="2" stroke-opacity="0.200000" points="442.49,-26.9 448.84,-26.57 443.67,-22.87 442.49,-26.9"/>
</g>
<!-- src/pages/counters/index.tsx&#45;&gt;@/lib/pageUtils -->
<g id="edge51" class="edge">
<title>src/pages/counters/index.tsx&#45;&gt;@/lib/pageUtils</title>
<path fill="none" stroke="#000000" stroke-width="2" stroke-opacity="0.200000" d="M62.63,-343.37C62.04,-314.42 64.51,-226.46 113,-182.84 206.72,-98.53 371.82,-112.71 444.47,-124.09"/>
<polygon fill="#000000" fill-opacity="0.200000" stroke="#000000" stroke-width="2" stroke-opacity="0.200000" points="444.02,-126.14 450.28,-125.04 444.7,-122 444.02,-126.14"/>
</g>
<!-- src/pages/index.ts -->
<g id="node50" class="node">
<title>src/pages/index.ts</title>
<g id="a_node50"><a xlink:href="src/pages/index.ts" xlink:title="index.ts">
<path fill="#ddfeff" stroke="black" d="M83,-473.84C83,-473.84 41,-473.84 41,-473.84 38,-473.84 35,-470.84 35,-467.84 35,-467.84 35,-461.84 35,-461.84 35,-458.84 38,-455.84 41,-455.84 41,-455.84 83,-455.84 83,-455.84 86,-455.84 89,-458.84 89,-461.84 89,-461.84 89,-467.84 89,-467.84 89,-470.84 86,-473.84 83,-473.84"/>
<text text-anchor="start" x="46" y="-462.64" font-family="Helvetica,sans-Serif" font-size="9.00">index.ts</text>
</a>
</g>
</g>
<!-- src/pages/index.ts&#45;&gt;src/pages/[...param].tsx -->
<g id="edge52" class="edge">
<title>src/pages/index.ts&#45;&gt;src/pages/[...param].tsx</title>
<path fill="none" stroke="#000000" stroke-width="2" stroke-opacity="0.200000" d="M89.32,-456.03C93.06,-454.26 96.74,-452.2 100,-449.84 134.14,-425.14 163.48,-384.64 178.43,-361.84"/>
<polygon fill="#000000" fill-opacity="0.200000" stroke="#000000" stroke-width="2" stroke-opacity="0.200000" points="180.16,-363.03 181.63,-356.84 176.62,-360.76 180.16,-363.03"/>
</g>
</g>
</svg>
